G04*
G04 #@! TF.GenerationSoftware,Altium Limited,Altium Designer,25.8.1 (18)*
G04*
G04 Layer_Physical_Order=3*
G04 Layer_Color=1930808*
%FSLAX25Y25*%
%MOIN*%
G70*
G04*
G04 #@! TF.SameCoordinates,45636B8A-3915-4F7A-89EB-9D21C2A6E2F9*
G04*
G04*
G04 #@! TF.FilePolarity,Negative*
G04*
G01*
G75*
%ADD56C,0.06800*%
%ADD74C,0.00010*%
%AMTHOVALD75*
21,1,0.04724,0.08362,0,0,360.0*
1,1,0.08362,-0.02362,0.00000*
1,1,0.08362,0.02362,0.00000*
21,0,0.04724,0.06362,0,0,360.0*
1,0,0.06362,-0.02362,0.00000*
1,0,0.06362,0.02362,0.00000*
4,0,4,-0.01655,-0.00707,-0.04612,-0.03664,-0.06026,-0.02249,-0.03069,0.00707,-0.01655,-0.00707,0.0*
4,0,4,0.03069,-0.00707,0.06026,0.02249,0.04612,0.03664,0.01655,0.00707,0.03069,-0.00707,0.0*
4,0,4,-0.03069,-0.00707,-0.06026,0.02249,-0.04612,0.03664,-0.01655,0.00707,-0.03069,-0.00707,0.0*
4,0,4,0.01655,-0.00707,0.04612,-0.03664,0.06026,-0.02249,0.03069,0.00707,0.01655,-0.00707,0.0*
%
%ADD75THOVALD75*%

%AMTHOVALD76*
21,1,0.03150,0.08362,0,0,360.0*
1,1,0.08362,-0.01575,0.00000*
1,1,0.08362,0.01575,0.00000*
21,0,0.03150,0.06362,0,0,360.0*
1,0,0.06362,-0.01575,0.00000*
1,0,0.06362,0.01575,0.00000*
4,0,4,-0.00868,-0.00707,-0.03824,-0.03664,-0.05238,-0.02249,-0.02282,0.00707,-0.00868,-0.00707,0.0*
4,0,4,0.02282,-0.00707,0.05238,0.02249,0.03824,0.03664,0.00868,0.00707,0.02282,-0.00707,0.0*
4,0,4,-0.02282,-0.00707,-0.05238,0.02249,-0.03824,0.03664,-0.00868,0.00707,-0.02282,-0.00707,0.0*
4,0,4,0.00868,-0.00707,0.03824,-0.03664,0.05238,-0.02249,0.02282,0.00707,0.00868,-0.00707,0.0*
%
%ADD76THOVALD76*%

%ADD77C,0.08000*%
G04:AMPARAMS|DCode=78|XSize=100mil|YSize=100mil|CornerRadius=0mil|HoleSize=0mil|Usage=FLASHONLY|Rotation=0.000|XOffset=0mil|YOffset=0mil|HoleType=Round|Shape=Relief|Width=20mil|Gap=10mil|Entries=4|*
%AMTHD78*
7,0,0,0.10000,0.08000,0.02000,45*
%
%ADD78THD78*%
%ADD79C,0.05200*%
D56*
X37500Y55000D02*
D03*
Y50000D02*
D03*
Y45000D02*
D03*
X137500Y50000D02*
D03*
X143500D02*
D03*
D74*
X0Y0D02*
Y100000D01*
X270000D01*
Y0D02*
Y100000D01*
X0Y0D02*
X270000D01*
D75*
X5752Y60984D02*
D03*
Y95000D02*
D03*
X6752Y5000D02*
D03*
Y39016D02*
D03*
D76*
X21500Y60984D02*
D03*
Y95000D02*
D03*
X22500Y5000D02*
D03*
Y39016D02*
D03*
D77*
X55000Y95000D02*
D03*
X255000D02*
D03*
X265000Y5000D02*
D03*
X65000Y95000D02*
D03*
X45000Y5000D02*
D03*
X55000D02*
D03*
X65000D02*
D03*
X75000D02*
D03*
X85000D02*
D03*
X95000D02*
D03*
X105000D02*
D03*
X115000D02*
D03*
X125000D02*
D03*
X135000D02*
D03*
X145000D02*
D03*
X155000D02*
D03*
X165000D02*
D03*
X175000D02*
D03*
X185000D02*
D03*
X195000D02*
D03*
X205000D02*
D03*
X215000D02*
D03*
X225000D02*
D03*
X235000D02*
D03*
X245000D02*
D03*
Y95000D02*
D03*
X235000D02*
D03*
X225000D02*
D03*
X215000D02*
D03*
X205000D02*
D03*
X195000D02*
D03*
X185000D02*
D03*
X175000D02*
D03*
X165000D02*
D03*
X155000D02*
D03*
X145000D02*
D03*
X135000D02*
D03*
X125000D02*
D03*
X115000D02*
D03*
X105000D02*
D03*
X95000D02*
D03*
X85000D02*
D03*
X75000D02*
D03*
X35000D02*
D03*
D78*
X265000D02*
D03*
X255000Y5000D02*
D03*
X45000Y95000D02*
D03*
X35000Y5000D02*
D03*
D79*
X46970Y22479D02*
D03*
X46600Y19300D02*
D03*
X34500Y78683D02*
D03*
X30000Y77683D02*
D03*
X182900Y66100D02*
D03*
X195000Y70100D02*
D03*
X175000Y61500D02*
D03*
X170000Y60000D02*
D03*
X96000Y88000D02*
D03*
X56500Y15100D02*
D03*
X52100D02*
D03*
X61626Y15257D02*
D03*
X62000Y50000D02*
D03*
X81566Y85066D02*
D03*
X253100Y89100D02*
D03*
X247500Y89000D02*
D03*
X181500Y76200D02*
D03*
X78000Y48000D02*
D03*
X62000Y65000D02*
D03*
X188000Y51000D02*
D03*
X75000Y88000D02*
D03*
X166998Y56498D02*
D03*
X150000Y60500D02*
D03*
X155909Y58409D02*
D03*
X48500Y78500D02*
D03*
Y73500D02*
D03*
X171000Y38700D02*
D03*
X179000Y37000D02*
D03*
X196755Y38255D02*
D03*
X188591Y38728D02*
D03*
X188000Y46506D02*
D03*
X81400Y25000D02*
D03*
X77700Y25300D02*
D03*
X202100Y44800D02*
D03*
X202300Y52300D02*
D03*
X150000Y50500D02*
D03*
X88000Y73000D02*
D03*
X193000Y66500D02*
D03*
Y73500D02*
D03*
X167000Y80000D02*
D03*
X188000Y30500D02*
D03*
X197579Y29921D02*
D03*
X232811Y26350D02*
D03*
X226118D02*
D03*
X219500Y26500D02*
D03*
X246193Y67500D02*
D03*
X216079Y73650D02*
D03*
X216083Y32500D02*
D03*
X246197Y26350D02*
D03*
X249547Y32500D02*
D03*
X239504Y26350D02*
D03*
X242854Y32500D02*
D03*
X236161D02*
D03*
X229468D02*
D03*
X222776D02*
D03*
X222772Y73650D02*
D03*
X219421Y67500D02*
D03*
X229465Y73650D02*
D03*
X226114Y67500D02*
D03*
X236157Y73650D02*
D03*
X232807Y67500D02*
D03*
X239500D02*
D03*
X242850Y73650D02*
D03*
X249500Y73500D02*
D03*
M02*
