G04*
G04 #@! TF.GenerationSoftware,Altium Limited,Altium Designer,25.8.1 (18)*
G04*
G04 Layer_Color=32896*
%FSLAX25Y25*%
%MOIN*%
G70*
G04*
G04 #@! TF.SameCoordinates,45636B8A-3915-4F7A-89EB-9D21C2A6E2F9*
G04*
G04*
G04 #@! TF.FilePolarity,Positive*
G04*
G01*
G75*
%ADD11C,0.00600*%
%ADD58C,0.01000*%
D11*
X266900Y72901D02*
X264901Y74900D01*
X262901Y72901D01*
X264901Y70901D02*
Y68235D01*
Y66903D02*
Y64237D01*
Y62904D02*
Y60238D01*
X266900Y58905D02*
X262901D01*
Y56906D01*
X263568Y56239D01*
X264901D01*
X265567Y56906D01*
Y58905D01*
X262901Y54906D02*
Y53574D01*
Y54240D01*
X266900D01*
Y54906D01*
Y53574D01*
Y51574D02*
X262901D01*
X266900Y48908D01*
X262901D01*
X266900Y47576D02*
Y46243D01*
Y46909D01*
X262901D01*
X263568Y47576D01*
X264901Y44243D02*
Y41577D01*
Y40244D02*
Y37579D01*
Y36246D02*
Y33580D01*
X266900Y32247D02*
X264901Y30248D01*
X262901Y32247D01*
X187567Y34933D02*
X188900Y36266D01*
Y37599D01*
X187567Y38932D01*
X182902Y38265D02*
X183568Y38932D01*
X184901D01*
X185568Y38265D01*
Y35599D01*
X184901Y34933D01*
X183568D01*
X182902Y35599D01*
X181569Y34933D02*
X180236Y36266D01*
Y37599D01*
X181569Y38932D01*
X175571Y34933D02*
X178237D01*
X175571Y37599D01*
Y38265D01*
X176237Y38932D01*
X177570D01*
X178237Y38265D01*
X174238D02*
X173572Y38932D01*
X172239D01*
X171572Y38265D01*
Y35599D01*
X172239Y34933D01*
X173572D01*
X174238Y35599D01*
Y38265D01*
X167574Y34933D02*
X170239D01*
X167574Y37599D01*
Y38265D01*
X168240Y38932D01*
X169573D01*
X170239Y38265D01*
X163575Y38932D02*
X166241D01*
Y36932D01*
X164908Y37599D01*
X164241D01*
X163575Y36932D01*
Y35599D01*
X164241Y34933D01*
X165574D01*
X166241Y35599D01*
X158243Y38932D02*
Y34933D01*
Y36932D01*
X155577D01*
Y38932D01*
Y34933D01*
X154244Y37599D02*
Y35599D01*
X153578Y34933D01*
X151579D01*
Y34266D01*
X152245Y33600D01*
X152912D01*
X151579Y34933D02*
Y37599D01*
X150246D02*
Y35599D01*
X149579Y34933D01*
X147580D01*
Y37599D01*
X146247Y34933D02*
Y38932D01*
Y36266D02*
X144248Y37599D01*
X146247Y36266D02*
X144248Y34933D01*
X142248Y33600D02*
X141582D01*
X140916Y34266D01*
Y37599D01*
X138250Y34933D02*
X136917D01*
X137583D01*
Y37599D01*
X138250D01*
X134917Y34933D02*
Y37599D01*
X132918D01*
X132252Y36932D01*
Y34933D01*
X124254Y38932D02*
X125587D01*
X124921D01*
Y35599D01*
X125587Y34933D01*
X126253D01*
X126920Y35599D01*
X120922Y34933D02*
X122255D01*
X122921Y35599D01*
Y36932D01*
X122255Y37599D01*
X120922D01*
X120255Y36932D01*
Y36266D01*
X122921D01*
X118256Y34933D02*
X116923D01*
X116257Y35599D01*
Y36932D01*
X116923Y37599D01*
X118256D01*
X118923Y36932D01*
Y35599D01*
X118256Y34933D01*
X114924D02*
Y37599D01*
X112925D01*
X112258Y36932D01*
Y34933D01*
X109592Y33600D02*
X108926D01*
X108259Y34266D01*
Y37599D01*
X110259D01*
X110925Y36932D01*
Y35599D01*
X110259Y34933D01*
X108259D01*
X53401Y26500D02*
Y25167D01*
Y25834D01*
X57400D01*
Y26500D01*
Y25167D01*
X53401Y21168D02*
Y22501D01*
X54068Y23168D01*
X56734D01*
X57400Y22501D01*
Y21168D01*
X56734Y20502D01*
X54068D01*
X53401Y21168D01*
X57400Y17170D02*
X53401D01*
X55401Y19169D01*
Y16503D01*
X54068Y15170D02*
X53401Y14504D01*
Y13171D01*
X54068Y12505D01*
X54734D01*
X55401Y13171D01*
X56067Y12505D01*
X56734D01*
X57400Y13171D01*
Y14504D01*
X56734Y15170D01*
X56067D01*
X55401Y14504D01*
X54734Y15170D01*
X54068D01*
X55401Y14504D02*
Y13171D01*
X63401Y26500D02*
X66734D01*
X67400Y25834D01*
Y24501D01*
X66734Y23834D01*
X63401D01*
X64068Y19836D02*
X63401Y20502D01*
Y21835D01*
X64068Y22501D01*
X64734D01*
X65401Y21835D01*
Y20502D01*
X66067Y19836D01*
X66734D01*
X67400Y20502D01*
Y21835D01*
X66734Y22501D01*
X63401Y18503D02*
X67400D01*
Y16503D01*
X66734Y15837D01*
X66067D01*
X65401Y16503D01*
Y18503D01*
Y16503D01*
X64734Y15837D01*
X64068D01*
X63401Y16503D01*
Y18503D01*
X65401Y14504D02*
Y11838D01*
X73401Y26500D02*
X76734D01*
X77400Y25834D01*
Y24501D01*
X76734Y23834D01*
X73401D01*
X74068Y19836D02*
X73401Y20502D01*
Y21835D01*
X74068Y22501D01*
X74734D01*
X75401Y21835D01*
Y20502D01*
X76067Y19836D01*
X76734D01*
X77400Y20502D01*
Y21835D01*
X76734Y22501D01*
X73401Y18503D02*
X77400D01*
Y16503D01*
X76734Y15837D01*
X76067D01*
X75401Y16503D01*
Y18503D01*
Y16503D01*
X74734Y15837D01*
X74068D01*
X73401Y16503D01*
Y18503D01*
X75401Y14504D02*
Y11838D01*
X74068Y13171D02*
X76734D01*
X83401Y26500D02*
Y25167D01*
Y25834D01*
X87400D01*
Y26500D01*
Y25167D01*
X83401Y21168D02*
Y22501D01*
X84068Y23168D01*
X86734D01*
X87400Y22501D01*
Y21168D01*
X86734Y20502D01*
X84068D01*
X83401Y21168D01*
X87400Y16503D02*
Y19169D01*
X84734Y16503D01*
X84068D01*
X83401Y17170D01*
Y18503D01*
X84068Y19169D01*
X87400Y15170D02*
Y13837D01*
Y14504D01*
X83401D01*
X84068Y15170D01*
X43401Y26500D02*
Y25167D01*
Y25834D01*
X47400D01*
Y26500D01*
Y25167D01*
X43401Y21168D02*
Y22501D01*
X44068Y23168D01*
X46734D01*
X47400Y22501D01*
Y21168D01*
X46734Y20502D01*
X44068D01*
X43401Y21168D01*
X47400Y17170D02*
X43401D01*
X45401Y19169D01*
Y16503D01*
X43401Y15170D02*
Y12505D01*
X44068D01*
X46734Y15170D01*
X47400D01*
X34068Y23834D02*
X33401Y24501D01*
Y25834D01*
X34068Y26500D01*
X36734D01*
X37400Y25834D01*
Y24501D01*
X36734Y23834D01*
X35401D01*
Y25167D01*
X37400Y22501D02*
X33401D01*
X37400Y19836D01*
X33401D01*
Y18503D02*
X37400D01*
Y16503D01*
X36734Y15837D01*
X34068D01*
X33401Y16503D01*
Y18503D01*
X113401Y26500D02*
Y25167D01*
Y25834D01*
X117400D01*
Y26500D01*
Y25167D01*
X113401Y21168D02*
Y22501D01*
X114068Y23168D01*
X116734D01*
X117400Y22501D01*
Y21168D01*
X116734Y20502D01*
X114068D01*
X113401Y21168D01*
X114068Y19169D02*
X113401Y18503D01*
Y17170D01*
X114068Y16503D01*
X114734D01*
X115401Y17170D01*
Y17836D01*
Y17170D01*
X116067Y16503D01*
X116734D01*
X117400Y17170D01*
Y18503D01*
X116734Y19169D01*
X117400Y13171D02*
X113401D01*
X115401Y15170D01*
Y12505D01*
X123401Y26500D02*
Y25167D01*
Y25834D01*
X127400D01*
Y26500D01*
Y25167D01*
X123401Y21168D02*
Y22501D01*
X124068Y23168D01*
X126734D01*
X127400Y22501D01*
Y21168D01*
X126734Y20502D01*
X124068D01*
X123401Y21168D01*
X124068Y19169D02*
X123401Y18503D01*
Y17170D01*
X124068Y16503D01*
X124734D01*
X125401Y17170D01*
Y17836D01*
Y17170D01*
X126067Y16503D01*
X126734D01*
X127400Y17170D01*
Y18503D01*
X126734Y19169D01*
X123401Y12505D02*
Y15170D01*
X125401D01*
X124734Y13837D01*
Y13171D01*
X125401Y12505D01*
X126734D01*
X127400Y13171D01*
Y14504D01*
X126734Y15170D01*
X133401Y26500D02*
Y25167D01*
Y25834D01*
X137400D01*
Y26500D01*
Y25167D01*
X133401Y21168D02*
Y22501D01*
X134068Y23168D01*
X136733D01*
X137400Y22501D01*
Y21168D01*
X136733Y20502D01*
X134068D01*
X133401Y21168D01*
X134068Y19169D02*
X133401Y18503D01*
Y17170D01*
X134068Y16503D01*
X134734D01*
X135401Y17170D01*
Y17836D01*
Y17170D01*
X136067Y16503D01*
X136733D01*
X137400Y17170D01*
Y18503D01*
X136733Y19169D01*
X133401Y12505D02*
X134068Y13837D01*
X135401Y15170D01*
X136733D01*
X137400Y14504D01*
Y13171D01*
X136733Y12505D01*
X136067D01*
X135401Y13171D01*
Y15170D01*
X143401Y26500D02*
Y25167D01*
Y25834D01*
X147400D01*
Y26500D01*
Y25167D01*
X143401Y21168D02*
Y22501D01*
X144068Y23168D01*
X146733D01*
X147400Y22501D01*
Y21168D01*
X146733Y20502D01*
X144068D01*
X143401Y21168D01*
X144068Y19169D02*
X143401Y18503D01*
Y17170D01*
X144068Y16503D01*
X144734D01*
X145401Y17170D01*
Y17836D01*
Y17170D01*
X146067Y16503D01*
X146733D01*
X147400Y17170D01*
Y18503D01*
X146733Y19169D01*
X143401Y15170D02*
Y12505D01*
X144068D01*
X146733Y15170D01*
X147400D01*
X103401Y26500D02*
Y25167D01*
Y25834D01*
X107400D01*
Y26500D01*
Y25167D01*
X103401Y21168D02*
Y22501D01*
X104068Y23168D01*
X106734D01*
X107400Y22501D01*
Y21168D01*
X106734Y20502D01*
X104068D01*
X103401Y21168D01*
X104068Y19169D02*
X103401Y18503D01*
Y17170D01*
X104068Y16503D01*
X104734D01*
X105401Y17170D01*
Y17836D01*
Y17170D01*
X106067Y16503D01*
X106734D01*
X107400Y17170D01*
Y18503D01*
X106734Y19169D01*
X104068Y15170D02*
X103401Y14504D01*
Y13171D01*
X104068Y12505D01*
X104734D01*
X105401Y13171D01*
Y13837D01*
Y13171D01*
X106067Y12505D01*
X106734D01*
X107400Y13171D01*
Y14504D01*
X106734Y15170D01*
X93401Y26500D02*
Y25167D01*
Y25834D01*
X97400D01*
Y26500D01*
Y25167D01*
X93401Y21168D02*
Y22501D01*
X94068Y23168D01*
X96734D01*
X97400Y22501D01*
Y21168D01*
X96734Y20502D01*
X94068D01*
X93401Y21168D01*
X97400Y16503D02*
Y19169D01*
X94734Y16503D01*
X94068D01*
X93401Y17170D01*
Y18503D01*
X94068Y19169D01*
X93401Y12505D02*
X94068Y13837D01*
X95401Y15170D01*
X96734D01*
X97400Y14504D01*
Y13171D01*
X96734Y12505D01*
X96067D01*
X95401Y13171D01*
Y15170D01*
X173401Y26500D02*
Y25167D01*
Y25834D01*
X177400D01*
Y26500D01*
Y25167D01*
X173401Y21168D02*
Y22501D01*
X174068Y23168D01*
X176734D01*
X177400Y22501D01*
Y21168D01*
X176734Y20502D01*
X174068D01*
X173401Y21168D01*
X177400Y17170D02*
X173401D01*
X175401Y19169D01*
Y16503D01*
X174068Y15170D02*
X173401Y14504D01*
Y13171D01*
X174068Y12505D01*
X176734D01*
X177400Y13171D01*
Y14504D01*
X176734Y15170D01*
X174068D01*
X183401Y26500D02*
Y25167D01*
Y25834D01*
X187400D01*
Y26500D01*
Y25167D01*
X183401Y21168D02*
Y22501D01*
X184068Y23168D01*
X186733D01*
X187400Y22501D01*
Y21168D01*
X186733Y20502D01*
X184068D01*
X183401Y21168D01*
X187400Y17170D02*
X183401D01*
X185401Y19169D01*
Y16503D01*
X187400Y15170D02*
Y13837D01*
Y14504D01*
X183401D01*
X184068Y15170D01*
X193401Y26500D02*
Y25167D01*
Y25834D01*
X197400D01*
Y26500D01*
Y25167D01*
X193401Y21168D02*
Y22501D01*
X194068Y23168D01*
X196733D01*
X197400Y22501D01*
Y21168D01*
X196733Y20502D01*
X194068D01*
X193401Y21168D01*
X197400Y17170D02*
X193401D01*
X195401Y19169D01*
Y16503D01*
X197400Y12505D02*
Y15170D01*
X194734Y12505D01*
X194068D01*
X193401Y13171D01*
Y14504D01*
X194068Y15170D01*
X203401Y26500D02*
Y23834D01*
Y25167D01*
X207400D01*
X203401Y22501D02*
X207400Y19836D01*
X203401D02*
X207400Y22501D01*
X203401Y18503D02*
X207400D01*
Y16503D01*
X206734Y15837D01*
X204068D01*
X203401Y16503D01*
Y18503D01*
X163401Y26500D02*
Y25167D01*
Y25834D01*
X167400D01*
Y26500D01*
Y25167D01*
X163401Y21168D02*
Y22501D01*
X164068Y23168D01*
X166734D01*
X167400Y22501D01*
Y21168D01*
X166734Y20502D01*
X164068D01*
X163401Y21168D01*
X164068Y19169D02*
X163401Y18503D01*
Y17170D01*
X164068Y16503D01*
X164734D01*
X165401Y17170D01*
Y17836D01*
Y17170D01*
X166067Y16503D01*
X166734D01*
X167400Y17170D01*
Y18503D01*
X166734Y19169D01*
Y15170D02*
X167400Y14504D01*
Y13171D01*
X166734Y12505D01*
X164068D01*
X163401Y13171D01*
Y14504D01*
X164068Y15170D01*
X164734D01*
X165401Y14504D01*
Y12505D01*
X153401Y26500D02*
Y25167D01*
Y25834D01*
X157400D01*
Y26500D01*
Y25167D01*
X153401Y21168D02*
Y22501D01*
X154068Y23168D01*
X156734D01*
X157400Y22501D01*
Y21168D01*
X156734Y20502D01*
X154068D01*
X153401Y21168D01*
X154068Y19169D02*
X153401Y18503D01*
Y17170D01*
X154068Y16503D01*
X154734D01*
X155401Y17170D01*
Y17836D01*
Y17170D01*
X156067Y16503D01*
X156734D01*
X157400Y17170D01*
Y18503D01*
X156734Y19169D01*
X154068Y15170D02*
X153401Y14504D01*
Y13171D01*
X154068Y12505D01*
X154734D01*
X155401Y13171D01*
X156067Y12505D01*
X156734D01*
X157400Y13171D01*
Y14504D01*
X156734Y15170D01*
X156067D01*
X155401Y14504D01*
X154734Y15170D01*
X154068D01*
X155401Y14504D02*
Y13171D01*
X217400Y26500D02*
X213401D01*
Y24501D01*
X214068Y23834D01*
X215401D01*
X216067Y24501D01*
Y26500D01*
Y25167D02*
X217400Y23834D01*
X213401Y22501D02*
X217400Y19836D01*
X213401D02*
X217400Y22501D01*
X213401Y18503D02*
X217400D01*
Y16503D01*
X216734Y15837D01*
X214068D01*
X213401Y16503D01*
Y18503D01*
X223401Y26500D02*
Y25167D01*
Y25834D01*
X227400D01*
Y26500D01*
Y25167D01*
X223401Y21168D02*
Y22501D01*
X224068Y23168D01*
X226734D01*
X227400Y22501D01*
Y21168D01*
X226734Y20502D01*
X224068D01*
X223401Y21168D01*
X227400Y17170D02*
X223401D01*
X225401Y19169D01*
Y16503D01*
X223401Y12505D02*
Y15170D01*
X225401D01*
X224734Y13837D01*
Y13171D01*
X225401Y12505D01*
X226734D01*
X227400Y13171D01*
Y14504D01*
X226734Y15170D01*
X264068Y26500D02*
X263401Y25834D01*
Y24501D01*
X264068Y23834D01*
X264734D01*
X265401Y24501D01*
Y25167D01*
Y24501D01*
X266067Y23834D01*
X266734D01*
X267400Y24501D01*
Y25834D01*
X266734Y26500D01*
X263401Y22501D02*
X266067D01*
X267400Y21168D01*
X266067Y19836D01*
X263401D01*
X264068Y18503D02*
X263401Y17836D01*
Y16503D01*
X264068Y15837D01*
X264734D01*
X265401Y16503D01*
Y17170D01*
Y16503D01*
X266067Y15837D01*
X266734D01*
X267400Y16503D01*
Y17836D01*
X266734Y18503D01*
X254068Y23834D02*
X253401Y24501D01*
Y25834D01*
X254068Y26500D01*
X256734D01*
X257400Y25834D01*
Y24501D01*
X256734Y23834D01*
X255401D01*
Y25167D01*
X257400Y22501D02*
X253401D01*
X257400Y19836D01*
X253401D01*
Y18503D02*
X257400D01*
Y16503D01*
X256734Y15837D01*
X254068D01*
X253401Y16503D01*
Y18503D01*
X243401Y23834D02*
Y26500D01*
X247400D01*
Y23834D01*
X245401Y26500D02*
Y25167D01*
X247400Y22501D02*
X243401D01*
X247400Y19836D01*
X243401D01*
X233401Y26500D02*
Y25167D01*
Y25834D01*
X237400D01*
Y26500D01*
Y25167D01*
X233401Y21168D02*
Y22501D01*
X234068Y23168D01*
X236734D01*
X237400Y22501D01*
Y21168D01*
X236734Y20502D01*
X234068D01*
X233401Y21168D01*
X237400Y17170D02*
X233401D01*
X235401Y19169D01*
Y16503D01*
X233401Y12505D02*
X234068Y13837D01*
X235401Y15170D01*
X236734D01*
X237400Y14504D01*
Y13171D01*
X236734Y12505D01*
X236067D01*
X235401Y13171D01*
Y15170D01*
X82901Y87900D02*
Y86567D01*
Y87234D01*
X86900D01*
Y87900D01*
Y86567D01*
X82901Y82568D02*
Y83901D01*
X83568Y84568D01*
X86234D01*
X86900Y83901D01*
Y82568D01*
X86234Y81902D01*
X83568D01*
X82901Y82568D01*
X86900Y80569D02*
Y79236D01*
Y79903D01*
X82901D01*
X83568Y80569D01*
X82901Y74571D02*
X83568Y75904D01*
X84901Y77237D01*
X86234D01*
X86900Y76570D01*
Y75237D01*
X86234Y74571D01*
X85567D01*
X84901Y75237D01*
Y77237D01*
X73305Y88171D02*
Y86838D01*
Y87504D01*
X77304D01*
Y88171D01*
Y86838D01*
X73305Y82839D02*
Y84172D01*
X73972Y84839D01*
X76638D01*
X77304Y84172D01*
Y82839D01*
X76638Y82173D01*
X73972D01*
X73305Y82839D01*
X77304Y80840D02*
Y79507D01*
Y80173D01*
X73305D01*
X73972Y80840D01*
X73305Y77508D02*
Y74842D01*
X73972D01*
X76638Y77508D01*
X77304D01*
X63305Y88171D02*
Y86838D01*
Y87504D01*
X67304D01*
Y88171D01*
Y86838D01*
X63305Y82839D02*
Y84172D01*
X63972Y84839D01*
X66638D01*
X67304Y84172D01*
Y82839D01*
X66638Y82173D01*
X63972D01*
X63305Y82839D01*
X67304Y80840D02*
Y79507D01*
Y80173D01*
X63305D01*
X63972Y80840D01*
Y77508D02*
X63305Y76841D01*
Y75508D01*
X63972Y74842D01*
X64638D01*
X65305Y75508D01*
X65971Y74842D01*
X66638D01*
X67304Y75508D01*
Y76841D01*
X66638Y77508D01*
X65971D01*
X65305Y76841D01*
X64638Y77508D01*
X63972D01*
X65305Y76841D02*
Y75508D01*
X52401Y85234D02*
Y87900D01*
X54401D01*
X53734Y86567D01*
Y85901D01*
X54401Y85234D01*
X55734D01*
X56400Y85901D01*
Y87234D01*
X55734Y87900D01*
X52401Y83901D02*
X55067D01*
X56400Y82568D01*
X55067Y81235D01*
X52401D01*
X43472Y85505D02*
X42805Y86172D01*
Y87504D01*
X43472Y88171D01*
X46138D01*
X46804Y87504D01*
Y86172D01*
X46138Y85505D01*
X44805D01*
Y86838D01*
X46804Y84172D02*
X42805D01*
X46804Y81506D01*
X42805D01*
Y80173D02*
X46804D01*
Y78174D01*
X46138Y77508D01*
X43472D01*
X42805Y78174D01*
Y80173D01*
X36804Y88171D02*
X32805D01*
X36804Y85505D01*
X32805D01*
X33472Y81506D02*
X32805Y82173D01*
Y83506D01*
X33472Y84172D01*
X36138D01*
X36804Y83506D01*
Y82173D01*
X36138Y81506D01*
X143401Y87900D02*
Y86567D01*
Y87234D01*
X147400D01*
Y87900D01*
Y86567D01*
X143401Y82568D02*
Y83901D01*
X144068Y84568D01*
X146733D01*
X147400Y83901D01*
Y82568D01*
X146733Y81902D01*
X144068D01*
X143401Y82568D01*
X147400Y80569D02*
Y79236D01*
Y79903D01*
X143401D01*
X144068Y80569D01*
Y77237D02*
X143401Y76570D01*
Y75237D01*
X144068Y74571D01*
X146733D01*
X147400Y75237D01*
Y76570D01*
X146733Y77237D01*
X144068D01*
X133306Y88171D02*
Y86838D01*
Y87504D01*
X137304D01*
Y88171D01*
Y86838D01*
X133306Y82839D02*
Y84172D01*
X133972Y84839D01*
X136638D01*
X137304Y84172D01*
Y82839D01*
X136638Y82173D01*
X133972D01*
X133306Y82839D01*
X137304Y80840D02*
Y79507D01*
Y80173D01*
X133306D01*
X133972Y80840D01*
X137304Y77508D02*
Y76175D01*
Y76841D01*
X133306D01*
X133972Y77508D01*
X123305Y88171D02*
Y86838D01*
Y87504D01*
X127304D01*
Y88171D01*
Y86838D01*
X123305Y82839D02*
Y84172D01*
X123972Y84839D01*
X126638D01*
X127304Y84172D01*
Y82839D01*
X126638Y82173D01*
X123972D01*
X123305Y82839D01*
X127304Y80840D02*
Y79507D01*
Y80173D01*
X123305D01*
X123972Y80840D01*
X127304Y74842D02*
Y77508D01*
X124638Y74842D01*
X123972D01*
X123305Y75508D01*
Y76841D01*
X123972Y77508D01*
X113305Y88171D02*
Y86838D01*
Y87504D01*
X117304D01*
Y88171D01*
Y86838D01*
X113305Y82839D02*
Y84172D01*
X113972Y84839D01*
X116638D01*
X117304Y84172D01*
Y82839D01*
X116638Y82173D01*
X113972D01*
X113305Y82839D01*
X117304Y80840D02*
Y79507D01*
Y80173D01*
X113305D01*
X113972Y80840D01*
Y77508D02*
X113305Y76841D01*
Y75508D01*
X113972Y74842D01*
X114638D01*
X115305Y75508D01*
Y76175D01*
Y75508D01*
X115971Y74842D01*
X116638D01*
X117304Y75508D01*
Y76841D01*
X116638Y77508D01*
X102805Y88171D02*
Y86838D01*
Y87504D01*
X106804D01*
Y88171D01*
Y86838D01*
X102805Y82839D02*
Y84172D01*
X103472Y84839D01*
X106138D01*
X106804Y84172D01*
Y82839D01*
X106138Y82173D01*
X103472D01*
X102805Y82839D01*
X106804Y80840D02*
Y79507D01*
Y80173D01*
X102805D01*
X103472Y80840D01*
X106804Y75508D02*
X102805D01*
X104805Y77508D01*
Y74842D01*
X92805Y88171D02*
Y86838D01*
Y87504D01*
X96804D01*
Y88171D01*
Y86838D01*
X92805Y82839D02*
Y84172D01*
X93472Y84839D01*
X96138D01*
X96804Y84172D01*
Y82839D01*
X96138Y82173D01*
X93472D01*
X92805Y82839D01*
X96804Y80840D02*
Y79507D01*
Y80173D01*
X92805D01*
X93472Y80840D01*
X92805Y74842D02*
Y77508D01*
X94805D01*
X94138Y76175D01*
Y75508D01*
X94805Y74842D01*
X96138D01*
X96804Y75508D01*
Y76841D01*
X96138Y77508D01*
X203401Y87900D02*
Y86567D01*
Y87234D01*
X207400D01*
Y87900D01*
Y86567D01*
X203401Y82568D02*
Y83901D01*
X204068Y84568D01*
X206734D01*
X207400Y83901D01*
Y82568D01*
X206734Y81902D01*
X204068D01*
X203401Y82568D01*
X207400Y78570D02*
X203401D01*
X205401Y80569D01*
Y77903D01*
X193306Y88171D02*
Y86838D01*
Y87504D01*
X197304D01*
Y88171D01*
Y86838D01*
X193306Y82839D02*
Y84172D01*
X193972Y84839D01*
X196638D01*
X197304Y84172D01*
Y82839D01*
X196638Y82173D01*
X193972D01*
X193306Y82839D01*
Y78174D02*
Y80840D01*
X195305D01*
X194638Y79507D01*
Y78841D01*
X195305Y78174D01*
X196638D01*
X197304Y78841D01*
Y80173D01*
X196638Y80840D01*
X183306Y88171D02*
Y86838D01*
Y87504D01*
X187304D01*
Y88171D01*
Y86838D01*
X183306Y82839D02*
Y84172D01*
X183972Y84839D01*
X186638D01*
X187304Y84172D01*
Y82839D01*
X186638Y82173D01*
X183972D01*
X183306Y82839D01*
Y78174D02*
X183972Y79507D01*
X185305Y80840D01*
X186638D01*
X187304Y80173D01*
Y78841D01*
X186638Y78174D01*
X185971D01*
X185305Y78841D01*
Y80840D01*
X173305Y88171D02*
Y86838D01*
Y87504D01*
X177304D01*
Y88171D01*
Y86838D01*
X173305Y82839D02*
Y84172D01*
X173972Y84839D01*
X176638D01*
X177304Y84172D01*
Y82839D01*
X176638Y82173D01*
X173972D01*
X173305Y82839D01*
Y80840D02*
Y78174D01*
X173972D01*
X176638Y80840D01*
X177304D01*
X162901Y87900D02*
Y86567D01*
Y87234D01*
X166900D01*
Y87900D01*
Y86567D01*
X162901Y82568D02*
Y83901D01*
X163568Y84568D01*
X166234D01*
X166900Y83901D01*
Y82568D01*
X166234Y81902D01*
X163568D01*
X162901Y82568D01*
X163568Y80569D02*
X162901Y79903D01*
Y78570D01*
X163568Y77903D01*
X164234D01*
X164901Y78570D01*
X165567Y77903D01*
X166234D01*
X166900Y78570D01*
Y79903D01*
X166234Y80569D01*
X165567D01*
X164901Y79903D01*
X164234Y80569D01*
X163568D01*
X164901Y79903D02*
Y78570D01*
X153401Y87900D02*
Y86567D01*
Y87234D01*
X157400D01*
Y87900D01*
Y86567D01*
X153401Y82568D02*
Y83901D01*
X154068Y84568D01*
X156734D01*
X157400Y83901D01*
Y82568D01*
X156734Y81902D01*
X154068D01*
X153401Y82568D01*
X156734Y80569D02*
X157400Y79903D01*
Y78570D01*
X156734Y77903D01*
X154068D01*
X153401Y78570D01*
Y79903D01*
X154068Y80569D01*
X154734D01*
X155401Y79903D01*
Y77903D01*
X212901Y87900D02*
Y86567D01*
Y87234D01*
X216900D01*
Y87900D01*
Y86567D01*
X212901Y82568D02*
Y83901D01*
X213568Y84568D01*
X216234D01*
X216900Y83901D01*
Y82568D01*
X216234Y81902D01*
X213568D01*
X212901Y82568D01*
X213568Y80569D02*
X212901Y79903D01*
Y78570D01*
X213568Y77903D01*
X214234D01*
X214901Y78570D01*
Y79236D01*
Y78570D01*
X215567Y77903D01*
X216234D01*
X216900Y78570D01*
Y79903D01*
X216234Y80569D01*
X223401Y87900D02*
Y86567D01*
Y87234D01*
X227400D01*
Y87900D01*
Y86567D01*
X223401Y82568D02*
Y83901D01*
X224068Y84568D01*
X226734D01*
X227400Y83901D01*
Y82568D01*
X226734Y81902D01*
X224068D01*
X223401Y82568D01*
X227400Y77903D02*
Y80569D01*
X224734Y77903D01*
X224068D01*
X223401Y78570D01*
Y79903D01*
X224068Y80569D01*
X233306Y88171D02*
Y86838D01*
Y87504D01*
X237304D01*
Y88171D01*
Y86838D01*
X233306Y82839D02*
Y84172D01*
X233972Y84839D01*
X236638D01*
X237304Y84172D01*
Y82839D01*
X236638Y82173D01*
X233972D01*
X233306Y82839D01*
X237304Y80840D02*
Y79507D01*
Y80173D01*
X233306D01*
X233972Y80840D01*
X242901Y87900D02*
Y86567D01*
Y87234D01*
X246900D01*
Y87900D01*
Y86567D01*
X242901Y82568D02*
Y83901D01*
X243568Y84568D01*
X246234D01*
X246900Y83901D01*
Y82568D01*
X246234Y81902D01*
X243568D01*
X242901Y82568D01*
X243568Y80569D02*
X242901Y79903D01*
Y78570D01*
X243568Y77903D01*
X246234D01*
X246900Y78570D01*
Y79903D01*
X246234Y80569D01*
X243568D01*
X253972Y88171D02*
X253306Y87504D01*
Y86172D01*
X253972Y85505D01*
X254638D01*
X255305Y86172D01*
Y86838D01*
Y86172D01*
X255971Y85505D01*
X256638D01*
X257304Y86172D01*
Y87504D01*
X256638Y88171D01*
X253306Y84172D02*
X255971D01*
X257304Y82839D01*
X255971Y81506D01*
X253306D01*
X253972Y80173D02*
X253306Y79507D01*
Y78174D01*
X253972Y77508D01*
X254638D01*
X255305Y78174D01*
Y78841D01*
Y78174D01*
X255971Y77508D01*
X256638D01*
X257304Y78174D01*
Y79507D01*
X256638Y80173D01*
X263568Y85234D02*
X262901Y85901D01*
Y87234D01*
X263568Y87900D01*
X266234D01*
X266900Y87234D01*
Y85901D01*
X266234Y85234D01*
X264901D01*
Y86567D01*
X266900Y83901D02*
X262901D01*
X266900Y81235D01*
X262901D01*
Y79903D02*
X266900D01*
Y77903D01*
X266234Y77237D01*
X263568D01*
X262901Y77903D01*
Y79903D01*
X262600Y-3400D02*
Y-2067D01*
Y-2733D01*
X266599D01*
X265932Y-3400D01*
X262300Y101900D02*
Y103233D01*
Y102567D01*
X266299D01*
X265632Y101900D01*
D58*
X30000Y0D02*
X270000D01*
X30000D02*
Y10000D01*
X270000D01*
Y0D02*
Y10000D01*
Y90000D02*
Y100000D01*
X30000D02*
X270000D01*
X30000Y90000D02*
Y100000D01*
Y90000D02*
X270000D01*
M02*
