G04*
G04 #@! TF.GenerationSoftware,Altium Limited,Altium Designer,25.8.1 (18)*
G04*
G04 Layer_Physical_Order=4*
G04 Layer_Color=16711680*
%FSLAX25Y25*%
%MOIN*%
G70*
G04*
G04 #@! TF.SameCoordinates,45636B8A-3915-4F7A-89EB-9D21C2A6E2F9*
G04*
G04*
G04 #@! TF.FilePolarity,Positive*
G04*
G01*
G75*
%ADD11C,0.00600*%
G04:AMPARAMS|DCode=53|XSize=39.37mil|YSize=86.61mil|CornerRadius=19.68mil|HoleSize=0mil|Usage=FLASHONLY|Rotation=270.000|XOffset=0mil|YOffset=0mil|HoleType=Round|Shape=RoundedRectangle|*
%AMROUNDEDRECTD53*
21,1,0.03937,0.04724,0,0,270.0*
21,1,0.00000,0.08661,0,0,270.0*
1,1,0.03937,-0.02362,0.00000*
1,1,0.03937,-0.02362,0.00000*
1,1,0.03937,0.02362,0.00000*
1,1,0.03937,0.02362,0.00000*
%
%ADD53ROUNDEDRECTD53*%
G04:AMPARAMS|DCode=54|XSize=39.37mil|YSize=70.87mil|CornerRadius=19.68mil|HoleSize=0mil|Usage=FLASHONLY|Rotation=270.000|XOffset=0mil|YOffset=0mil|HoleType=Round|Shape=RoundedRectangle|*
%AMROUNDEDRECTD54*
21,1,0.03937,0.03150,0,0,270.0*
21,1,0.00000,0.07087,0,0,270.0*
1,1,0.03937,-0.01575,0.00000*
1,1,0.03937,-0.01575,0.00000*
1,1,0.03937,0.01575,0.00000*
1,1,0.03937,0.01575,0.00000*
%
%ADD54ROUNDEDRECTD54*%
%ADD58C,0.01000*%
%ADD62C,0.00603*%
%ADD66R,0.04000X0.04000*%
%ADD67C,0.04000*%
%ADD68R,0.04000X0.04000*%
%ADD69C,0.06400*%
%ADD70R,0.06400X0.06400*%
%ADD71C,0.02400*%
%ADD72C,0.04000*%
%ADD80C,0.01000*%
D11*
X110000Y60500D02*
X150000D01*
X89118Y75700D02*
X94800D01*
X110000Y60500D01*
X109500Y57000D02*
X154500D01*
X93500Y73000D02*
X109500Y57000D01*
X154500D02*
X155909Y58409D01*
X128533Y93967D02*
X148000Y74500D01*
X179000D02*
X180000Y73500D01*
X148000Y74500D02*
X179000D01*
X126172Y70500D02*
X126972Y69700D01*
X172171D02*
X172871Y69000D01*
X185118D01*
X126972Y69700D02*
X172171D01*
X185118Y69000D02*
X186518Y67600D01*
X105000Y88500D02*
X123000Y70500D01*
X126172D01*
X96033Y91967D02*
X120300Y67700D01*
X171343D01*
X182800Y66200D02*
X182900Y66100D01*
X172843Y66200D02*
X182800D01*
X171343Y67700D02*
X172843Y66200D01*
X117800Y65700D02*
X170514D01*
X174714Y61500D02*
X175000D01*
X170514Y65700D02*
X174714Y61500D01*
X99500Y84000D02*
X117800Y65700D01*
X96033Y91967D02*
Y93967D01*
X95000Y95000D02*
X96033Y93967D01*
X179172Y71500D02*
X186196D01*
X187596Y70100D01*
X178672Y72000D02*
X179172Y71500D01*
X115000Y84500D02*
X127500Y72000D01*
X178672D01*
X115000Y84500D02*
Y95000D01*
X105000Y88500D02*
Y95000D01*
X92000Y84000D02*
X99500D01*
X86982Y89018D02*
X92000Y84000D01*
X86982Y89018D02*
Y93018D01*
X85000Y95000D02*
X86982Y93018D01*
X98000Y78000D02*
X112800Y63200D01*
X156618D01*
X88300Y75700D02*
X88714Y75700D01*
X87714Y76286D02*
X88300Y75700D01*
X84500Y80816D02*
X87714Y76286D01*
X83500Y86384D02*
X84207Y85677D01*
X84500Y85384D02*
X84500Y80816D01*
X88714Y75700D02*
X89118D01*
X84207Y85677D02*
X84500Y85384D01*
X89962Y78000D02*
X98000D01*
X89669Y78293D02*
X89962Y78000D01*
X75355Y93419D02*
X76660Y92035D01*
X89660Y78303D02*
X89669Y78293D01*
X86500Y81644D02*
X89660Y78303D01*
X86500Y81644D02*
Y86212D01*
X80164Y90000D02*
X82713D01*
X77246Y91449D02*
X80164Y90000D01*
X76660Y92035D02*
X77246Y91449D01*
X82713Y90000D02*
X86500Y86212D01*
X75000Y95000D02*
X75355Y93419D01*
X88000Y73000D02*
X93500D01*
X83500Y65500D02*
X95500D01*
X106500Y54500D01*
X165000D01*
X60550Y61500D02*
X77682D01*
X81682Y65500D01*
X58500Y63550D02*
X60550Y61500D01*
X58500Y63550D02*
Y75000D01*
X81682Y65500D02*
X83500D01*
X249042Y22076D02*
X249369Y22403D01*
X234724Y10792D02*
X249042Y22076D01*
X234716Y10786D02*
X234724Y10792D01*
X249369Y22403D02*
X249376Y22807D01*
X230642Y7700D02*
X234716Y10786D01*
X249376Y22807D02*
X249547Y32500D01*
X227103Y7700D02*
X230642D01*
X225938Y7142D02*
X227103Y7700D01*
X225656Y6861D02*
X225938Y7142D01*
X225000Y5000D02*
X225656Y6861D01*
X244227Y21300D02*
X246197Y23269D01*
Y26350D01*
X243351Y20547D02*
X244227Y21300D01*
X226049Y9700D02*
X229813Y9700D01*
X243351Y20547D01*
X223053Y9700D02*
X226049D01*
X233044Y14953D02*
X242523Y22547D01*
X228985Y11700D02*
X233044Y14953D01*
X242523Y22547D02*
X242854Y22879D01*
X242854Y32500D01*
X221432Y11700D02*
X228985D01*
X205000Y5000D02*
X205043Y5570D01*
X205588Y6115D01*
X209260Y6204D01*
X210102Y6950D02*
X215207Y11475D01*
X209260Y6204D02*
X210102Y6950D01*
X215207Y11475D02*
X221432Y11700D01*
X239172Y22526D02*
X239504Y22858D01*
X239504Y26350D01*
X228156Y13700D02*
X239172Y22526D01*
X221396Y13700D02*
X228156D01*
X214417Y13448D02*
X221396Y13700D01*
X210332Y9827D02*
X214417Y13448D01*
X209945Y9802D02*
X209967Y9803D01*
X210332Y9827D01*
X195000Y5000D02*
X195000Y8652D01*
X195928Y9516D02*
X209945Y9802D01*
X195269Y9038D02*
X195707Y9477D01*
X195000Y8652D02*
X195234Y8886D01*
X209536Y11794D02*
X213943Y15700D01*
X227454D01*
X183889Y6889D02*
X184597Y11794D01*
X209536D01*
X183889Y6485D02*
X185000Y5000D01*
X183889Y6485D02*
Y6889D01*
X227454Y15700D02*
X232186Y19492D01*
X236562Y23868D01*
X236161Y32500D02*
X236562Y32099D01*
Y23868D02*
Y32099D01*
X212887Y17700D02*
X215096D01*
X210205Y15117D02*
X210219Y15130D01*
X210675Y15587D02*
X210924Y15810D01*
X209501Y14439D02*
X210205Y15117D01*
X215096Y17700D02*
X215096Y17700D01*
X210219Y15130D02*
X210675Y15587D01*
X212596Y17420D02*
X212887Y17700D01*
X210924Y15810D02*
X212596Y17420D01*
X215096Y17700D02*
X226178D01*
X225636Y19700D02*
X226292Y20356D01*
X208682Y16442D02*
X211743Y19417D01*
X212034Y19700D01*
X226292Y20356D02*
X226619Y20627D01*
X212034Y19700D02*
X225636D01*
X226619Y20627D02*
X229468Y23116D01*
X211138Y21700D02*
X224432D01*
X207827Y18400D02*
X211138Y21700D01*
X165000Y5000D02*
Y7464D01*
X165700Y8200D02*
X169016Y11200D01*
X165000Y7464D02*
X165378Y7878D01*
X169016Y11200D02*
X170957D01*
X165378Y7878D02*
X165700Y8200D01*
X170957Y11200D02*
X175916Y16159D01*
X173668Y6680D02*
X175000Y5000D01*
X178826Y14159D02*
X209189D01*
X173917Y9251D02*
X178826Y14159D01*
X173668Y7086D02*
X173917Y9251D01*
X173668Y6680D02*
Y7086D01*
X209189Y14159D02*
X209458Y14397D01*
X209501Y14439D01*
X207417Y18400D02*
X207827Y18400D01*
X175328Y18400D02*
X207417D01*
X175916Y16159D02*
X207985D01*
X208391Y16159D02*
X208682Y16442D01*
X207985Y16159D02*
X208391Y16159D01*
X165786Y13700D02*
X170628D01*
X158119Y6033D02*
X165786Y13700D01*
X170628D02*
X175328Y18400D01*
X169800Y15700D02*
X174500Y20400D01*
X201082D01*
X153000Y15700D02*
X169800D01*
X145973Y8673D02*
X153000Y15700D01*
X201082Y20400D02*
X205882Y25200D01*
X145973Y5973D02*
Y8673D01*
X145000Y5000D02*
X145973Y5973D01*
X146172Y12900D02*
X150973Y17700D01*
X162382D01*
X167382Y22700D01*
X137570Y12900D02*
X146172D01*
X135357Y10740D02*
X137570Y12900D01*
X135000Y5000D02*
X135060Y10040D01*
X135065Y10447D02*
X135357Y10740D01*
X135060Y10040D02*
X135065Y10447D01*
X117300Y17900D02*
X145516D01*
X115000Y15600D02*
X117300Y17900D01*
X145516D02*
X149316Y21700D01*
X125000Y12100D02*
X128800Y15900D01*
X146344D02*
X150144Y19700D01*
X128800Y15900D02*
X146344D01*
X125000Y5000D02*
Y12100D01*
X149316Y21700D02*
X160725D01*
X115000Y5000D02*
Y15600D01*
X144987Y20200D02*
X148487Y23700D01*
X113400Y20200D02*
X144987D01*
X105533Y12333D02*
X113400Y20200D01*
X105533Y5533D02*
Y12333D01*
X105000Y5000D02*
X105533Y5533D01*
X95000Y14500D02*
X103000Y22500D01*
X144459D02*
X147659Y25700D01*
X103000Y22500D02*
X144459D01*
X95000Y5000D02*
Y14500D01*
X101200Y24800D02*
X143930D01*
X85514Y9114D02*
X101200Y24800D01*
X143930D02*
X146830Y27700D01*
X85514Y5514D02*
Y9114D01*
X85000Y5000D02*
X85514Y5514D01*
X89028Y17000D02*
X99128Y27100D01*
X143402D02*
X146002Y29700D01*
X99128Y27100D02*
X143402D01*
X76592Y17000D02*
X89028D01*
X69292Y9700D02*
X76592Y17000D01*
X63053Y9700D02*
X69292D01*
X76364Y19600D02*
X88800D01*
X98700Y29500D02*
X142974D01*
X145174Y31700D01*
X88800Y19600D02*
X98700Y29500D01*
X68464Y11700D02*
X76364Y19600D01*
X53053Y9700D02*
X60225D01*
X62225Y11700D02*
X68464D01*
X60225Y9700D02*
X62225Y11700D01*
X192814Y66500D02*
X193000D01*
X186518Y67600D02*
X191714D01*
X192814Y66500D01*
X187596Y70100D02*
X195000D01*
X159818Y60000D02*
X170000D01*
X156618Y63200D02*
X159818Y60000D01*
X75000Y88000D02*
X81884D01*
X58500Y75000D02*
X60500Y77000D01*
X65000Y81500D01*
X81884Y88000D02*
X82884Y87000D01*
X83500Y86384D01*
X65000Y81500D02*
Y87000D01*
Y95000D01*
X165000Y54500D02*
X166998Y56498D01*
X89118Y75700D02*
X89118Y75700D01*
X161583Y36700D02*
X169000D01*
X171000Y38700D01*
X176700Y34700D02*
X179000Y37000D01*
X162411Y34700D02*
X176700D01*
X191937Y38255D02*
X196755D01*
X184382Y30700D02*
X191937Y38255D01*
X182563Y32700D02*
X188591Y38728D01*
X163240Y32700D02*
X182563D01*
X170818Y56500D02*
X206400D01*
X226100Y36800D02*
X240622D01*
X206400Y56500D02*
X226100Y36800D01*
X166818Y52500D02*
X170818Y56500D01*
X152000Y52500D02*
X166818D01*
X150000Y50500D02*
X152000Y52500D01*
X240622Y36800D02*
X240822Y37000D01*
X258414D01*
X259000Y36414D01*
Y19000D02*
Y36414D01*
X245000Y5000D02*
X259000Y19000D01*
X125000Y95000D02*
X126033Y93967D01*
X128533D01*
X180000Y73500D02*
X193000D01*
X188229Y78300D02*
X192219D01*
X201453Y69100D02*
X213400D01*
X192219Y78300D02*
X201453Y69100D01*
X168286Y80300D02*
X186208D01*
X188229Y78300D01*
X200702Y72680D02*
X202282Y71100D01*
X193037Y80300D02*
X195500Y77882D01*
X200702Y72680D01*
X189058Y80300D02*
X193037D01*
X202282Y71100D02*
X213529D01*
X188482Y80876D02*
X189058Y80300D01*
X188478Y80880D02*
X188482Y80876D01*
X187021Y82300D02*
X188478Y80880D01*
X179715Y82300D02*
X187021D01*
X179422Y82593D02*
X179715Y82300D01*
X178715Y83300D02*
X179422Y82593D01*
X177700Y84300D02*
X178700Y83300D01*
X178715D01*
X167072Y84300D02*
X177700D01*
X165072Y86300D02*
X167072Y84300D01*
X202794Y80236D02*
X205529Y77500D01*
X216000D02*
X217150Y76350D01*
X205529Y77500D02*
X216000D01*
X219421Y67500D02*
Y74079D01*
X218779Y74721D02*
Y74768D01*
Y74721D02*
X219421Y74079D01*
X217150Y76350D02*
X217197D01*
X218779Y74768D01*
X197020Y82300D02*
X199122Y80236D01*
X202794D01*
X189886Y82300D02*
X197020D01*
X187835Y84300D02*
X189886Y82300D01*
X180543Y84300D02*
X187835D01*
X178543Y86300D02*
X180543Y84300D01*
X167900Y86300D02*
X178543D01*
X181543D02*
X188643D01*
X190715Y84300D01*
X197833D01*
X181172Y86500D02*
X181343D01*
X179372Y88300D02*
X181172Y86500D01*
X181343D02*
X181543Y86300D01*
X168872Y88300D02*
X179372D01*
X156872Y90300D02*
X158872Y88300D01*
X165900D02*
X167900Y86300D01*
X158872Y88300D02*
X165900D01*
X153200Y90300D02*
X156872D01*
X151860Y91502D02*
X153200Y90300D01*
X145000Y95000D02*
X147995D01*
X151847Y91515D01*
X197833Y84300D02*
X199951Y82236D01*
X203622D01*
X218083Y78300D02*
X221457D01*
X222772Y76986D01*
X216547Y79836D02*
X218083Y78300D01*
X206022Y79836D02*
X216547D01*
X206851Y81836D02*
X217375D01*
X218911Y80300D02*
X223800D01*
X226114Y77986D01*
X217375Y81836D02*
X218911Y80300D01*
X219740Y82300D02*
X226300D01*
X229465Y79135D01*
X218204Y83836D02*
X219740Y82300D01*
X207679Y83836D02*
X218204D01*
X204450Y84236D02*
X206851Y81836D01*
X200779Y84236D02*
X204450D01*
X200213Y84802D02*
X200779Y84236D01*
X198629Y86300D02*
X200213Y84802D01*
X191543Y86300D02*
X198629D01*
X189426Y88300D02*
X190971Y86871D01*
X190985Y86858D02*
X191543Y86300D01*
X190971Y86871D02*
X190985Y86858D01*
X180200Y90300D02*
X181256Y89244D01*
X182372Y88300D01*
X189426D01*
X171861Y91502D02*
X172915Y90556D01*
X173200Y90300D02*
X173583Y90300D01*
X172915Y90556D02*
X173200Y90300D01*
X173583Y90300D02*
X180200D01*
X165000Y95000D02*
X167995D01*
X171846Y91515D01*
X199425Y88300D02*
X201607Y86236D01*
X205279D01*
X192372Y88300D02*
X199425D01*
X183614Y90300D02*
X190208D01*
X192372Y88300D01*
X181860Y91502D02*
X183200Y90300D01*
X183614Y90300D01*
X175000Y95000D02*
X177995D01*
X181846Y91515D01*
X193614Y90300D02*
X200210D01*
X202436Y88236D02*
X206107D01*
X200210Y90300D02*
X202436Y88236D01*
X187995Y95000D02*
X191847Y91515D01*
X193200Y90300D02*
X193614Y90300D01*
X185000Y95000D02*
X187995D01*
X191860Y91502D02*
X193200Y90300D01*
X195000Y95000D02*
X198014D01*
X201852Y91510D02*
X203264Y90236D01*
X203678Y90236D01*
X206936D01*
X198014Y95000D02*
X201838Y91523D01*
X217700Y64800D02*
X243493D01*
X213400Y69100D02*
X217700Y64800D01*
X167000Y80000D02*
X167268Y80268D01*
X168254D01*
X168286Y80300D01*
X243493Y64800D02*
X246193Y67500D01*
X139651Y90349D02*
X140052Y90300D01*
X146872D02*
X147164Y90007D01*
X140052Y90300D02*
X146872D01*
X147164Y90007D02*
X148872Y88300D01*
X135000Y95000D02*
X139651Y90349D01*
X148872Y88300D02*
X156043D01*
X158043Y86300D01*
X165072D01*
X213529Y71100D02*
X216079Y73650D01*
X208507Y85836D02*
X219032D01*
X220568Y84300D01*
X219861Y87836D02*
X221396Y86300D01*
X229000D01*
X236157Y79142D01*
X230300Y88300D02*
X239500Y79100D01*
X222225Y88300D02*
X230300D01*
X220689Y89836D02*
X222225Y88300D01*
X209336Y87836D02*
X219861D01*
X206936Y90236D02*
X209336Y87836D01*
X49000Y5647D02*
X53053Y9700D01*
X45000Y5000D02*
X45647Y5647D01*
X49000D01*
X145174Y31700D02*
X156583D01*
X161583Y36700D01*
X55000Y5000D02*
X55647Y5647D01*
X59000D01*
X63053Y9700D01*
X146002Y29700D02*
X157411D01*
X162411Y34700D01*
X146830Y27700D02*
X158239D01*
X163240Y32700D01*
X147659Y25700D02*
X159068D01*
X164068Y30700D01*
X184382D01*
X148487Y23700D02*
X159896D01*
X164896Y28700D01*
X186200D01*
X188000Y30500D01*
X207525Y32500D02*
X216083D01*
X199725Y24700D02*
X207525Y32500D01*
X160725Y21700D02*
X165725Y26700D01*
X194358D01*
X197579Y29921D01*
X208118Y25200D02*
X209618Y23700D01*
X222190D01*
X222776Y24286D02*
Y32500D01*
X222190Y23700D02*
X222776Y24286D01*
X150144Y19700D02*
X161553D01*
X166553Y24700D01*
X199725D01*
X210447Y25700D02*
X218321D01*
X208947Y27200D02*
X210447Y25700D01*
X205053Y27200D02*
X208947D01*
X219121Y26500D02*
X219500D01*
X218321Y25700D02*
X219121Y26500D01*
X167382Y22700D02*
X200553D01*
X205053Y27200D01*
X205882Y25200D02*
X208118D01*
X155000Y5000D02*
X156033Y6033D01*
X158119D01*
X224807Y21700D02*
X226118Y23011D01*
X224432Y21700D02*
X224807Y21700D01*
X226118Y23011D02*
Y26350D01*
X216000Y6000D02*
X219353D01*
X223053Y9700D01*
X215000Y5000D02*
X216000Y6000D01*
X226524Y17700D02*
X231824Y21966D01*
X231904Y22038D01*
X226178Y17700D02*
X226178Y17700D01*
X226524D01*
X229468Y23116D02*
Y32500D01*
X232811Y22945D02*
Y26350D01*
X231904Y22038D02*
X232811Y22945D01*
X222772Y73650D02*
Y76986D01*
X249500Y73500D02*
Y79100D01*
X235000Y93600D02*
X249500Y79100D01*
X235000Y93600D02*
Y95000D01*
X232000Y90300D02*
X242850Y79450D01*
X223053Y90300D02*
X232000D01*
X242850Y73650D02*
Y79450D01*
X239500Y67500D02*
Y79100D01*
X236157Y73650D02*
Y79142D01*
X232807Y67500D02*
Y78893D01*
X227400Y84300D02*
X232807Y78893D01*
X220568Y84300D02*
X227400D01*
X229465Y73650D02*
Y79135D01*
X226114Y67500D02*
Y77986D01*
X210164Y89836D02*
X220689D01*
X215000Y95000D02*
X215914D01*
X218780Y92133D01*
X221220D01*
X223053Y90300D01*
X205000Y95000D02*
X210164Y89836D01*
X155000Y95000D02*
X159700Y90300D01*
X166872D01*
X168872Y88300D01*
X203622Y82236D02*
X206022Y79836D01*
X205279Y86236D02*
X207679Y83836D01*
X206107Y88236D02*
X208507Y85836D01*
D53*
X5752Y60984D02*
D03*
Y95000D02*
D03*
X6752Y5000D02*
D03*
Y39016D02*
D03*
D54*
X21500Y60984D02*
D03*
Y95000D02*
D03*
X22500Y5000D02*
D03*
Y39016D02*
D03*
D58*
X195928Y9516D02*
G03*
X195707Y9477I11J-709D01*
G01*
X195269Y9038D02*
G03*
X195234Y8886I670J-232D01*
G01*
X151847Y91515D02*
G03*
X151860Y91502I3153J3485D01*
G01*
X171846Y91515D02*
G03*
X171861Y91502I3153J3485D01*
G01*
X181846Y91515D02*
G03*
X181860Y91502I3153J3485D01*
G01*
X191847Y91515D02*
G03*
X191860Y91502I3153J3485D01*
G01*
X201838Y91523D02*
G03*
X201852Y91510I3162J3477D01*
G01*
D62*
X155325Y48548D02*
X174767D01*
X175319Y47997D01*
X175348Y49951D02*
X175900Y49400D01*
X154744Y49951D02*
X175348D01*
X186509Y47997D02*
X188000Y46506D01*
X175319Y47997D02*
X186509D01*
X186400Y49400D02*
X188000Y51000D01*
X175900Y49400D02*
X186400D01*
X148997Y44205D02*
X154744Y49951D01*
X149578Y42801D02*
X155325Y48548D01*
X47852Y20099D02*
X52087D01*
X53677Y20492D02*
X58508D01*
X46970Y22479D02*
X47245D01*
X52087Y20099D02*
X53096Y19089D01*
X47053Y19300D02*
X47852Y20099D01*
X48222Y21502D02*
X52668D01*
X53096Y19089D02*
X59089D01*
X46600Y19300D02*
X47053D01*
X59089Y19089D02*
X74883Y34883D01*
X47245Y22479D02*
X48222Y21502D01*
X52668D02*
X53677Y20492D01*
X30500Y78183D02*
X31533Y79216D01*
X30000Y77683D02*
X30500Y78183D01*
X34156Y79027D02*
X34500Y78683D01*
X33715Y81089D02*
X35125Y82500D01*
X33715Y81089D02*
X34156Y80648D01*
X31533Y79216D02*
Y80892D01*
X34156Y79027D02*
Y80648D01*
X31533Y80892D02*
X34544Y83903D01*
X38342D02*
X45704Y76541D01*
X34544Y83903D02*
X38342D01*
X35125Y82500D02*
X37761D01*
X75859Y44205D02*
X148997D01*
X73480Y41825D02*
X75859Y44205D01*
X73480Y35464D02*
Y41825D01*
X58508Y20492D02*
X73480Y35464D01*
X45704Y76541D02*
X47027D01*
X48500Y78014D01*
X45123Y75138D02*
X47204D01*
X48500Y73500D02*
Y73842D01*
X47204Y75138D02*
X48500Y73842D01*
Y78014D02*
Y78500D01*
X37761Y82500D02*
X45123Y75138D01*
X170074Y41029D02*
X189544D01*
X156258Y44258D02*
X160419Y40097D01*
X190125Y42432D02*
X190787Y41770D01*
X161000Y41500D02*
X168561D01*
X191867Y40367D02*
X197000Y45500D01*
X190206Y40367D02*
X191867D01*
X190787Y41770D02*
X191286D01*
X169493Y42432D02*
X190125D01*
X189544Y41029D02*
X190206Y40367D01*
X156839Y45661D02*
X161000Y41500D01*
X160419Y40097D02*
X169142D01*
X170074Y41029D01*
X168561Y41500D02*
X169493Y42432D01*
X191286Y41770D02*
X195597Y46081D01*
X76440Y42801D02*
X149578D01*
X74883Y41244D02*
X76440Y42801D01*
X74883Y34883D02*
Y41244D01*
X96318Y37500D02*
X97606Y36212D01*
X82419Y38903D02*
X96899D01*
X78597Y26197D02*
Y35081D01*
X98187Y37615D02*
X115623D01*
X83000Y37500D02*
X96318D01*
X97606Y36212D02*
X115042D01*
X115623Y37615D02*
X116041Y37198D01*
X78597Y35081D02*
X82419Y38903D01*
X115459Y35796D02*
X146541D01*
X80000Y34500D02*
X83000Y37500D01*
X96899Y38903D02*
X98187Y37615D01*
X146541Y35796D02*
X155003Y44258D01*
X116041Y37198D02*
X145959D01*
X80000Y26400D02*
Y34500D01*
X115042Y36212D02*
X115459Y35796D01*
X145959Y37198D02*
X154422Y45661D01*
X77700Y25300D02*
X78597Y26197D01*
X80000Y26400D02*
X81400Y25000D01*
X154422Y45661D02*
X156839D01*
X155003Y44258D02*
X156258D01*
X195597Y46081D02*
Y48076D01*
X196772Y49251D01*
X201500D01*
X202300Y50051D01*
Y52300D01*
X197000Y47495D02*
X197353Y47848D01*
X201500D01*
X197000Y45500D02*
Y47495D01*
X202100Y44800D02*
Y47249D01*
X201500Y47848D02*
X202100Y47249D01*
D66*
X37500Y55000D02*
D03*
D67*
Y50000D02*
D03*
Y45000D02*
D03*
X143500Y50000D02*
D03*
D68*
X137500D02*
D03*
D69*
X55000Y95000D02*
D03*
X255000D02*
D03*
X65000D02*
D03*
X255000Y5000D02*
D03*
X45000Y95000D02*
D03*
X35000Y5000D02*
D03*
X45000D02*
D03*
X55000D02*
D03*
X65000D02*
D03*
X75000D02*
D03*
X85000D02*
D03*
X95000D02*
D03*
X105000D02*
D03*
X115000D02*
D03*
X125000D02*
D03*
X135000D02*
D03*
X145000D02*
D03*
X155000D02*
D03*
X165000D02*
D03*
X175000D02*
D03*
X185000D02*
D03*
X195000D02*
D03*
X205000D02*
D03*
X215000D02*
D03*
X225000D02*
D03*
X235000D02*
D03*
X245000D02*
D03*
Y95000D02*
D03*
X235000D02*
D03*
X225000D02*
D03*
X215000D02*
D03*
X205000D02*
D03*
X195000D02*
D03*
X185000D02*
D03*
X175000D02*
D03*
X165000D02*
D03*
X155000D02*
D03*
X145000D02*
D03*
X135000D02*
D03*
X125000D02*
D03*
X115000D02*
D03*
X105000D02*
D03*
X95000D02*
D03*
X85000D02*
D03*
X75000D02*
D03*
X35000D02*
D03*
D70*
X265000Y5000D02*
D03*
Y95000D02*
D03*
D71*
X46970Y22479D02*
D03*
X46600Y19300D02*
D03*
X36000Y86204D02*
D03*
X34500Y78683D02*
D03*
X30000Y77683D02*
D03*
X37000Y72800D02*
D03*
X44881Y70602D02*
D03*
X78500Y54000D02*
D03*
X182900Y66100D02*
D03*
X195000Y70100D02*
D03*
X175000Y61500D02*
D03*
X179000Y63500D02*
D03*
X170000Y60000D02*
D03*
X96000Y88000D02*
D03*
X56500Y15100D02*
D03*
X52100D02*
D03*
X61626Y15257D02*
D03*
X62000Y50000D02*
D03*
X81566Y85066D02*
D03*
X253100Y89100D02*
D03*
X247500Y89000D02*
D03*
X181500Y76200D02*
D03*
X78000Y48000D02*
D03*
X62000Y65000D02*
D03*
X188000Y51000D02*
D03*
X75000Y88000D02*
D03*
X69000Y75000D02*
D03*
Y79000D02*
D03*
X72732Y65268D02*
D03*
X73000Y75000D02*
D03*
Y79000D02*
D03*
X166998Y56498D02*
D03*
X150000Y60500D02*
D03*
X155909Y58409D02*
D03*
X161500Y63000D02*
D03*
X47500Y58500D02*
D03*
X29000Y90500D02*
D03*
X31000Y58500D02*
D03*
X27500Y62000D02*
D03*
X48500Y78500D02*
D03*
Y73500D02*
D03*
X44100Y81400D02*
D03*
X171000Y38700D02*
D03*
X179000Y37000D02*
D03*
X196755Y38255D02*
D03*
X188591Y38728D02*
D03*
X183000Y52000D02*
D03*
Y45500D02*
D03*
X188000Y46506D02*
D03*
X98900Y47200D02*
D03*
X114943Y47199D02*
D03*
X110500Y40198D02*
D03*
X114500D02*
D03*
X106500D02*
D03*
X102943Y47199D02*
D03*
X110943D02*
D03*
X102500Y40198D02*
D03*
X106943Y47199D02*
D03*
X114500Y33500D02*
D03*
X98557Y40500D02*
D03*
X102500Y33500D02*
D03*
X98557D02*
D03*
X106500D02*
D03*
X110500D02*
D03*
X123000Y39500D02*
D03*
X81400Y25000D02*
D03*
X77700Y25300D02*
D03*
X155500Y41500D02*
D03*
X45000Y15000D02*
D03*
Y25000D02*
D03*
X37500Y16000D02*
D03*
X37000Y24000D02*
D03*
X206500Y45000D02*
D03*
X206200Y52300D02*
D03*
X83300Y22300D02*
D03*
X74000Y22500D02*
D03*
X202100Y44800D02*
D03*
X202300Y52300D02*
D03*
X32500Y41500D02*
D03*
X29000Y38500D02*
D03*
X48000Y34000D02*
D03*
X30000Y9409D02*
D03*
X259500Y82083D02*
D03*
X263154Y73425D02*
D03*
X259583Y73650D02*
D03*
X263189Y70064D02*
D03*
X263154Y66732D02*
D03*
Y56693D02*
D03*
Y53347D02*
D03*
Y63386D02*
D03*
Y60039D02*
D03*
X243500Y89000D02*
D03*
X202500Y76500D02*
D03*
X159586Y80086D02*
D03*
X239504Y60500D02*
D03*
X250004Y56496D02*
D03*
X229000Y56500D02*
D03*
X263154Y43307D02*
D03*
Y50000D02*
D03*
Y46654D02*
D03*
Y33268D02*
D03*
Y29921D02*
D03*
Y39961D02*
D03*
Y36614D02*
D03*
X265000Y18500D02*
D03*
X263154Y26575D02*
D03*
X256236Y26350D02*
D03*
X252890D02*
D03*
X250004Y50000D02*
D03*
X242800Y53200D02*
D03*
Y46800D02*
D03*
X250004Y43504D02*
D03*
X236300Y53200D02*
D03*
X229004Y50000D02*
D03*
X236300Y46800D02*
D03*
X229004Y43504D02*
D03*
X239504Y39500D02*
D03*
X207000Y22500D02*
D03*
X168500Y20000D02*
D03*
X161000Y13000D02*
D03*
X133000Y84000D02*
D03*
X97000Y81000D02*
D03*
X94000Y60500D02*
D03*
Y55500D02*
D03*
X79000Y59000D02*
D03*
X69500Y89500D02*
D03*
X47500Y85000D02*
D03*
Y68000D02*
D03*
X65000Y53500D02*
D03*
X60000Y29000D02*
D03*
X56500D02*
D03*
X53000D02*
D03*
X150000Y50500D02*
D03*
X88000Y73000D02*
D03*
X193000Y66500D02*
D03*
Y73500D02*
D03*
X167000Y80000D02*
D03*
X188000Y30500D02*
D03*
X197579Y29921D02*
D03*
X232811Y26350D02*
D03*
X226118D02*
D03*
X219500Y26500D02*
D03*
X246193Y67500D02*
D03*
X216079Y73650D02*
D03*
X216083Y32500D02*
D03*
X246197Y26350D02*
D03*
X249547Y32500D02*
D03*
X239504Y26350D02*
D03*
X242854Y32500D02*
D03*
X236161D02*
D03*
X229468D02*
D03*
X222776D02*
D03*
X222772Y73650D02*
D03*
X219421Y67500D02*
D03*
X229465Y73650D02*
D03*
X226114Y67500D02*
D03*
X236157Y73650D02*
D03*
X232807Y67500D02*
D03*
X239500D02*
D03*
X242850Y73650D02*
D03*
X249500Y73500D02*
D03*
D72*
X55000Y94351D02*
Y95000D01*
X52500Y91851D02*
X55000Y94351D01*
X52500Y67060D02*
Y91851D01*
X49240Y63800D02*
X52500Y67060D01*
X45343Y63800D02*
X49240D01*
X43000Y50000D02*
X62000D01*
X43000Y61457D02*
X45343Y63800D01*
X43000Y50000D02*
Y61457D01*
X37500Y50000D02*
X43000D01*
X80600Y84900D02*
X80750Y84750D01*
Y73952D02*
Y84750D01*
X76275Y69478D02*
X80750Y73952D01*
X64343Y69478D02*
X76275D01*
X62000Y65000D02*
Y67134D01*
X64343Y69478D01*
D80*
X89669Y78293D02*
D03*
M02*
