G04*
G04 #@! TF.GenerationSoftware,Altium Limited,Altium Designer,25.8.1 (18)*
G04*
G04 Layer_Physical_Order=2*
G04 Layer_Color=36540*
%FSLAX25Y25*%
%MOIN*%
G70*
G04*
G04 #@! TF.SameCoordinates,45636B8A-3915-4F7A-89EB-9D21C2A6E2F9*
G04*
G04*
G04 #@! TF.FilePolarity,Positive*
G04*
G01*
G75*
G04:AMPARAMS|DCode=53|XSize=39.37mil|YSize=86.61mil|CornerRadius=19.68mil|HoleSize=0mil|Usage=FLASHONLY|Rotation=270.000|XOffset=0mil|YOffset=0mil|HoleType=Round|Shape=RoundedRectangle|*
%AMROUNDEDRECTD53*
21,1,0.03937,0.04724,0,0,270.0*
21,1,0.00000,0.08661,0,0,270.0*
1,1,0.03937,-0.02362,0.00000*
1,1,0.03937,-0.02362,0.00000*
1,1,0.03937,0.02362,0.00000*
1,1,0.03937,0.02362,0.00000*
%
%ADD53ROUNDEDRECTD53*%
G04:AMPARAMS|DCode=54|XSize=39.37mil|YSize=70.87mil|CornerRadius=19.68mil|HoleSize=0mil|Usage=FLASHONLY|Rotation=270.000|XOffset=0mil|YOffset=0mil|HoleType=Round|Shape=RoundedRectangle|*
%AMROUNDEDRECTD54*
21,1,0.03937,0.03150,0,0,270.0*
21,1,0.00000,0.07087,0,0,270.0*
1,1,0.03937,-0.01575,0.00000*
1,1,0.03937,-0.01575,0.00000*
1,1,0.03937,0.01575,0.00000*
1,1,0.03937,0.01575,0.00000*
%
%ADD54ROUNDEDRECTD54*%
%ADD63C,0.01500*%
%ADD64C,0.02000*%
%ADD66R,0.04000X0.04000*%
%ADD67C,0.04000*%
%ADD68R,0.04000X0.04000*%
%ADD69C,0.06400*%
%ADD70R,0.06400X0.06400*%
%ADD71C,0.02400*%
%ADD72C,0.04000*%
%ADD73C,0.06000*%
G36*
X268000Y91820D02*
X261820D01*
Y98000D01*
X268000D01*
Y91820D01*
D02*
G37*
G36*
X91594Y97500D02*
X91086Y96621D01*
X90800Y95553D01*
Y94447D01*
X91086Y93379D01*
X91639Y92421D01*
X92421Y91639D01*
X92617Y91526D01*
X92483Y91026D01*
X89874D01*
X89874Y91026D01*
X89091Y90923D01*
X88361Y90620D01*
X87734Y90140D01*
X83582Y85987D01*
X83092Y86085D01*
X83092Y86085D01*
X82585Y86592D01*
X81924Y86866D01*
X81208D01*
X80546Y86592D01*
X80040Y86085D01*
X79766Y85424D01*
Y84708D01*
X80040Y84046D01*
X80546Y83540D01*
X81122Y83301D01*
X80877Y82709D01*
X80774Y81926D01*
Y53453D01*
X78347Y51026D01*
X78000D01*
X77217Y50923D01*
X76487Y50621D01*
X75860Y50140D01*
X75380Y49513D01*
X75077Y48783D01*
X74974Y48000D01*
X75077Y47217D01*
X75380Y46487D01*
X75860Y45860D01*
X76487Y45379D01*
X77217Y45077D01*
X78000Y44974D01*
X79600D01*
X80383Y45077D01*
X81113Y45379D01*
X81740Y45860D01*
X85940Y50060D01*
X86421Y50687D01*
X86723Y51417D01*
X86826Y52200D01*
X86826Y52200D01*
Y70655D01*
X87242Y70933D01*
X87562Y70800D01*
X88438D01*
X89246Y71135D01*
X89865Y71754D01*
X90200Y72562D01*
Y73438D01*
X89865Y74246D01*
X89246Y74865D01*
X88438Y75200D01*
X87562D01*
X87242Y75067D01*
X86826Y75345D01*
Y80673D01*
X91127Y84974D01*
X106284D01*
X121979Y69279D01*
X122310Y69058D01*
X122700Y68980D01*
X140180D01*
Y53615D01*
X139680Y53369D01*
X139517Y53494D01*
X138544Y53897D01*
X137500Y54035D01*
X136456Y53897D01*
X135483Y53494D01*
X134839Y53000D01*
X134500D01*
Y52661D01*
X134006Y52017D01*
X133603Y51044D01*
X133466Y50000D01*
Y43171D01*
X121329Y31034D01*
X96500D01*
X96500Y31034D01*
X95456Y30897D01*
X94483Y30494D01*
X93647Y29853D01*
X83085Y19291D01*
X69020D01*
Y22100D01*
X68942Y22490D01*
X68721Y22821D01*
X68390Y23042D01*
X68000Y23120D01*
X50200D01*
X49810Y23042D01*
X49479Y22821D01*
X49470Y22808D01*
X49161Y22850D01*
X48949Y22928D01*
X48666Y23611D01*
X48103Y24174D01*
X47368Y24478D01*
X46573D01*
X45837Y24174D01*
X45275Y23611D01*
X44970Y22876D01*
Y22081D01*
X45275Y21346D01*
X45493Y21127D01*
X45467Y20996D01*
X44905Y20433D01*
X44600Y19698D01*
Y18902D01*
X44905Y18167D01*
X45467Y17605D01*
X46202Y17300D01*
X46998D01*
X47733Y17605D01*
X48296Y18167D01*
X48600Y18902D01*
Y19698D01*
X48296Y20433D01*
X48077Y20651D01*
X48103Y20783D01*
X48666Y21346D01*
X48680Y21381D01*
X49180Y21281D01*
Y13400D01*
X49258Y13010D01*
X49479Y12679D01*
X49810Y12458D01*
X50200Y12380D01*
X58803D01*
X59609Y11762D01*
X60582Y11359D01*
X61626Y11222D01*
X84756D01*
X84756Y11222D01*
X85801Y11359D01*
X86774Y11762D01*
X87609Y12404D01*
X98171Y22965D01*
X123000D01*
X123000Y22965D01*
X124044Y23103D01*
X125017Y23506D01*
X125853Y24147D01*
X140353Y38647D01*
X140353Y38647D01*
X140994Y39483D01*
X141397Y40456D01*
X141534Y41500D01*
X141534Y41500D01*
Y46280D01*
X146103D01*
X146493Y46358D01*
X146824Y46579D01*
X147045Y46910D01*
X147122Y47300D01*
Y68980D01*
X178000D01*
X178390Y69058D01*
X178721Y69279D01*
X179849Y70407D01*
X180440Y70860D01*
X182560Y72980D01*
X190826Y72980D01*
X190833Y72982D01*
X191135Y72254D01*
X191754Y71635D01*
X192562Y71300D01*
X192666D01*
X192944Y70884D01*
X192800Y70538D01*
Y69662D01*
X192991Y69200D01*
X192657Y68700D01*
X192562D01*
X191754Y68365D01*
X191135Y67746D01*
X190800Y66938D01*
Y66062D01*
X191135Y65254D01*
X191754Y64635D01*
X192562Y64300D01*
X193438D01*
X194246Y64635D01*
X194865Y65254D01*
X195200Y66062D01*
Y66938D01*
X195009Y67400D01*
X195343Y67900D01*
X195438D01*
X196246Y68235D01*
X196865Y68854D01*
X197200Y69662D01*
Y70538D01*
X196865Y71346D01*
X196246Y71965D01*
X195438Y72300D01*
X195334D01*
X195056Y72716D01*
X195200Y73062D01*
Y73938D01*
X194865Y74746D01*
X194246Y75365D01*
X194223Y75481D01*
X197022Y78280D01*
X246278Y78280D01*
X248600Y75958D01*
X248502Y75468D01*
X248254Y75365D01*
X247635Y74746D01*
X247300Y73938D01*
Y73062D01*
X247635Y72254D01*
X248254Y71635D01*
X249062Y71300D01*
X249938D01*
X250746Y71635D01*
X251365Y72254D01*
X251468Y72502D01*
X251958Y72600D01*
X256558Y68000D01*
X251379Y62821D01*
X251158Y62490D01*
X251080Y62100D01*
Y57185D01*
X251158Y56794D01*
X251184Y56731D01*
Y56261D01*
X251158Y56198D01*
X251080Y55808D01*
Y50688D01*
X251158Y50298D01*
X251184Y50235D01*
Y49765D01*
X251158Y49702D01*
X251080Y49312D01*
Y44192D01*
X251158Y43802D01*
X251184Y43739D01*
Y43269D01*
X251158Y43206D01*
X251080Y42815D01*
Y34731D01*
X250580Y34453D01*
X249985Y34700D01*
X249110D01*
X248301Y34365D01*
X247682Y33746D01*
X247347Y32938D01*
Y32062D01*
X247682Y31254D01*
X248301Y30635D01*
X249110Y30300D01*
X249985D01*
X250580Y30547D01*
X251080Y30269D01*
Y28786D01*
X251100Y28687D01*
Y28587D01*
X251138Y28494D01*
X251158Y28396D01*
X251214Y28312D01*
X251252Y28219D01*
X251323Y28148D01*
X251379Y28065D01*
X251463Y28009D01*
X251534Y27938D01*
X251886Y27703D01*
X251978Y27664D01*
X252062Y27608D01*
X252161Y27589D01*
X252253Y27550D01*
X252354D01*
X252452Y27531D01*
X253125D01*
X253558Y27351D01*
X253842Y27068D01*
X254173Y26847D01*
X254563Y26769D01*
X254953Y26847D01*
X255284Y27068D01*
X255568Y27351D01*
X256001Y27531D01*
X256471D01*
X256905Y27351D01*
X257237Y27019D01*
X257397Y26632D01*
Y26068D01*
X257237Y25682D01*
X256905Y25350D01*
X256471Y25170D01*
X256001D01*
X255568Y25350D01*
X255284Y25633D01*
X254953Y25854D01*
X254563Y25932D01*
X254173Y25854D01*
X253842Y25633D01*
X253558Y25350D01*
X253125Y25170D01*
X252452D01*
X252354Y25150D01*
X252253D01*
X252161Y25112D01*
X252062Y25092D01*
X251978Y25037D01*
X251886Y24998D01*
X251534Y24763D01*
X251463Y24692D01*
X251379Y24636D01*
X251323Y24553D01*
X251252Y24482D01*
X251214Y24389D01*
X251158Y24305D01*
X251138Y24207D01*
X251100Y24114D01*
Y24014D01*
X251080Y23915D01*
Y19020D01*
X240000D01*
X239610Y18942D01*
X239279Y18721D01*
X229279Y8721D01*
X229058Y8390D01*
X228980Y8000D01*
Y7506D01*
X228480Y7372D01*
X228361Y7579D01*
X227579Y8361D01*
X226621Y8914D01*
X225553Y9200D01*
X224447D01*
X223379Y8914D01*
X222421Y8361D01*
X221639Y7579D01*
X221086Y6621D01*
X220800Y5553D01*
Y4447D01*
X221086Y3379D01*
X221576Y2531D01*
X221389Y2031D01*
X218611D01*
X218424Y2531D01*
X218914Y3379D01*
X219200Y4447D01*
Y5553D01*
X218914Y6621D01*
X218361Y7579D01*
X217579Y8361D01*
X216621Y8914D01*
X215553Y9200D01*
X214447D01*
X213379Y8914D01*
X212421Y8361D01*
X211639Y7579D01*
X211086Y6621D01*
X210800Y5553D01*
Y4447D01*
X211086Y3379D01*
X211576Y2531D01*
X211389Y2031D01*
X208611D01*
X208424Y2531D01*
X208914Y3379D01*
X209200Y4447D01*
Y5553D01*
X208914Y6621D01*
X208361Y7579D01*
X207579Y8361D01*
X206621Y8914D01*
X205553Y9200D01*
X204447D01*
X203379Y8914D01*
X202421Y8361D01*
X201639Y7579D01*
X201086Y6621D01*
X200800Y5553D01*
Y4447D01*
X201086Y3379D01*
X201576Y2531D01*
X201389Y2031D01*
X198611D01*
X198424Y2531D01*
X198914Y3379D01*
X199200Y4447D01*
Y5553D01*
X198914Y6621D01*
X198361Y7579D01*
X197579Y8361D01*
X196621Y8914D01*
X195553Y9200D01*
X194447D01*
X193379Y8914D01*
X192421Y8361D01*
X191639Y7579D01*
X191086Y6621D01*
X190800Y5553D01*
Y4447D01*
X191086Y3379D01*
X191576Y2531D01*
X191389Y2031D01*
X188611D01*
X188424Y2531D01*
X188914Y3379D01*
X189200Y4447D01*
Y5553D01*
X188914Y6621D01*
X188361Y7579D01*
X187579Y8361D01*
X186621Y8914D01*
X185553Y9200D01*
X184447D01*
X183379Y8914D01*
X182421Y8361D01*
X181639Y7579D01*
X181086Y6621D01*
X180800Y5553D01*
Y4447D01*
X181086Y3379D01*
X181576Y2531D01*
X181389Y2031D01*
X178611D01*
X178424Y2531D01*
X178914Y3379D01*
X179200Y4447D01*
Y5553D01*
X178914Y6621D01*
X178361Y7579D01*
X177579Y8361D01*
X176621Y8914D01*
X175553Y9200D01*
X174447D01*
X173379Y8914D01*
X172421Y8361D01*
X171639Y7579D01*
X171086Y6621D01*
X170800Y5553D01*
Y4447D01*
X171086Y3379D01*
X171576Y2531D01*
X171389Y2031D01*
X168611D01*
X168424Y2531D01*
X168914Y3379D01*
X169200Y4447D01*
Y5553D01*
X168914Y6621D01*
X168361Y7579D01*
X167579Y8361D01*
X166621Y8914D01*
X165553Y9200D01*
X164447D01*
X163379Y8914D01*
X162421Y8361D01*
X161639Y7579D01*
X161086Y6621D01*
X160800Y5553D01*
Y4447D01*
X161086Y3379D01*
X161576Y2531D01*
X161389Y2031D01*
X158611D01*
X158424Y2531D01*
X158914Y3379D01*
X159200Y4447D01*
Y5553D01*
X158914Y6621D01*
X158361Y7579D01*
X157579Y8361D01*
X156621Y8914D01*
X155553Y9200D01*
X154447D01*
X153379Y8914D01*
X152421Y8361D01*
X151639Y7579D01*
X151086Y6621D01*
X150800Y5553D01*
Y4447D01*
X151086Y3379D01*
X151576Y2531D01*
X151389Y2031D01*
X148611D01*
X148424Y2531D01*
X148914Y3379D01*
X149200Y4447D01*
Y5553D01*
X148914Y6621D01*
X148361Y7579D01*
X147579Y8361D01*
X146621Y8914D01*
X145553Y9200D01*
X144447D01*
X143379Y8914D01*
X142421Y8361D01*
X141639Y7579D01*
X141086Y6621D01*
X140800Y5553D01*
Y4447D01*
X141086Y3379D01*
X141576Y2531D01*
X141389Y2031D01*
X138611D01*
X138424Y2531D01*
X138914Y3379D01*
X139200Y4447D01*
Y5553D01*
X138914Y6621D01*
X138361Y7579D01*
X137579Y8361D01*
X136621Y8914D01*
X135553Y9200D01*
X134447D01*
X133379Y8914D01*
X132421Y8361D01*
X131639Y7579D01*
X131086Y6621D01*
X130800Y5553D01*
Y4447D01*
X131086Y3379D01*
X131576Y2531D01*
X131389Y2031D01*
X128611D01*
X128424Y2531D01*
X128914Y3379D01*
X129200Y4447D01*
Y5553D01*
X128914Y6621D01*
X128361Y7579D01*
X127579Y8361D01*
X126621Y8914D01*
X125553Y9200D01*
X124447D01*
X123379Y8914D01*
X122421Y8361D01*
X121639Y7579D01*
X121086Y6621D01*
X120800Y5553D01*
Y4447D01*
X121086Y3379D01*
X121576Y2531D01*
X121389Y2031D01*
X118611D01*
X118424Y2531D01*
X118914Y3379D01*
X119200Y4447D01*
Y5553D01*
X118914Y6621D01*
X118361Y7579D01*
X117579Y8361D01*
X116621Y8914D01*
X115553Y9200D01*
X114447D01*
X113379Y8914D01*
X112421Y8361D01*
X111639Y7579D01*
X111086Y6621D01*
X110800Y5553D01*
Y4447D01*
X111086Y3379D01*
X111576Y2531D01*
X111389Y2031D01*
X108611D01*
X108424Y2531D01*
X108914Y3379D01*
X109200Y4447D01*
Y5553D01*
X108914Y6621D01*
X108361Y7579D01*
X107579Y8361D01*
X106621Y8914D01*
X105553Y9200D01*
X104447D01*
X103379Y8914D01*
X102421Y8361D01*
X101639Y7579D01*
X101086Y6621D01*
X100800Y5553D01*
Y4447D01*
X101086Y3379D01*
X101576Y2531D01*
X101389Y2031D01*
X98611D01*
X98424Y2531D01*
X98914Y3379D01*
X99200Y4447D01*
Y5553D01*
X98914Y6621D01*
X98361Y7579D01*
X97579Y8361D01*
X96621Y8914D01*
X95553Y9200D01*
X94447D01*
X93379Y8914D01*
X92421Y8361D01*
X91639Y7579D01*
X91086Y6621D01*
X90800Y5553D01*
Y4447D01*
X91086Y3379D01*
X91576Y2531D01*
X91389Y2031D01*
X88611D01*
X88424Y2531D01*
X88914Y3379D01*
X89200Y4447D01*
Y5553D01*
X88914Y6621D01*
X88361Y7579D01*
X87579Y8361D01*
X86621Y8914D01*
X85553Y9200D01*
X84447D01*
X83379Y8914D01*
X82421Y8361D01*
X81639Y7579D01*
X81086Y6621D01*
X80800Y5553D01*
Y4447D01*
X81086Y3379D01*
X81576Y2531D01*
X81389Y2031D01*
X78341D01*
X78149Y2492D01*
X78201Y2544D01*
X78727Y3456D01*
X79000Y4473D01*
Y5527D01*
X78727Y6544D01*
X78201Y7456D01*
X77456Y8201D01*
X76544Y8727D01*
X75527Y9000D01*
X74473D01*
X73456Y8727D01*
X72544Y8201D01*
X71799Y7456D01*
X71273Y6544D01*
X71000Y5527D01*
Y4473D01*
X71273Y3456D01*
X71799Y2544D01*
X71851Y2492D01*
X71659Y2031D01*
X68341D01*
X68149Y2492D01*
X68201Y2544D01*
X68727Y3456D01*
X69000Y4473D01*
Y5527D01*
X68727Y6544D01*
X68201Y7456D01*
X67456Y8201D01*
X66544Y8727D01*
X65527Y9000D01*
X64473D01*
X63456Y8727D01*
X62544Y8201D01*
X61799Y7456D01*
X61273Y6544D01*
X61000Y5527D01*
Y4473D01*
X61273Y3456D01*
X61799Y2544D01*
X61851Y2492D01*
X61659Y2031D01*
X58611D01*
X58424Y2531D01*
X58914Y3379D01*
X59200Y4447D01*
Y5553D01*
X58914Y6621D01*
X58361Y7579D01*
X57579Y8361D01*
X56621Y8914D01*
X55553Y9200D01*
X54447D01*
X53379Y8914D01*
X52421Y8361D01*
X51639Y7579D01*
X51086Y6621D01*
X50800Y5553D01*
Y4447D01*
X51086Y3379D01*
X51576Y2531D01*
X51389Y2031D01*
X48611D01*
X48424Y2531D01*
X48914Y3379D01*
X49200Y4447D01*
Y5553D01*
X48914Y6621D01*
X48361Y7579D01*
X47579Y8361D01*
X46621Y8914D01*
X45553Y9200D01*
X44447D01*
X43379Y8914D01*
X42421Y8361D01*
X41639Y7579D01*
X41086Y6621D01*
X40800Y5553D01*
Y4447D01*
X41086Y3379D01*
X41576Y2531D01*
X41389Y2031D01*
X2014D01*
X2000Y2034D01*
Y98000D01*
X31429D01*
X31594Y97500D01*
X31086Y96621D01*
X30800Y95553D01*
Y94447D01*
X31086Y93379D01*
X31639Y92421D01*
X32421Y91639D01*
X33379Y91086D01*
X34447Y90800D01*
X35553D01*
X36621Y91086D01*
X37579Y91639D01*
X38361Y92421D01*
X38914Y93379D01*
X39200Y94447D01*
Y95553D01*
X38914Y96621D01*
X38406Y97500D01*
X38571Y98000D01*
X51429D01*
X51594Y97500D01*
X51086Y96621D01*
X50800Y95553D01*
Y94447D01*
X51086Y93379D01*
X51639Y92421D01*
X52421Y91639D01*
X53379Y91086D01*
X54447Y90800D01*
X55553D01*
X56621Y91086D01*
X57579Y91639D01*
X58361Y92421D01*
X58914Y93379D01*
X59200Y94447D01*
Y95553D01*
X58914Y96621D01*
X58406Y97500D01*
X58571Y98000D01*
X61429D01*
X61594Y97500D01*
X61086Y96621D01*
X60800Y95553D01*
Y94447D01*
X61086Y93379D01*
X61639Y92421D01*
X62421Y91639D01*
X63379Y91086D01*
X64447Y90800D01*
X65553D01*
X66621Y91086D01*
X67579Y91639D01*
X68361Y92421D01*
X68914Y93379D01*
X69200Y94447D01*
Y95553D01*
X68914Y96621D01*
X68406Y97500D01*
X68571Y98000D01*
X71429D01*
X71594Y97500D01*
X71086Y96621D01*
X70800Y95553D01*
Y94447D01*
X71086Y93379D01*
X71639Y92421D01*
X72421Y91639D01*
X73379Y91086D01*
X74447Y90800D01*
X75553D01*
X76621Y91086D01*
X77579Y91639D01*
X78361Y92421D01*
X78914Y93379D01*
X79200Y94447D01*
Y95553D01*
X78914Y96621D01*
X78406Y97500D01*
X78571Y98000D01*
X81429D01*
X81594Y97500D01*
X81086Y96621D01*
X80800Y95553D01*
Y94447D01*
X81086Y93379D01*
X81639Y92421D01*
X82421Y91639D01*
X83379Y91086D01*
X84447Y90800D01*
X85553D01*
X86621Y91086D01*
X87579Y91639D01*
X88361Y92421D01*
X88914Y93379D01*
X89200Y94447D01*
Y95553D01*
X88914Y96621D01*
X88406Y97500D01*
X88571Y98000D01*
X91429D01*
X91594Y97500D01*
D02*
G37*
G36*
X260800Y90800D02*
X268000D01*
Y2000D01*
X258571D01*
X258406Y2500D01*
X258914Y3379D01*
X259200Y4447D01*
Y5553D01*
X258914Y6621D01*
X258361Y7579D01*
X257579Y8361D01*
X256621Y8914D01*
X255553Y9200D01*
X254447D01*
X253379Y8914D01*
X252421Y8361D01*
X251639Y7579D01*
X251086Y6621D01*
X250800Y5553D01*
Y4447D01*
X251086Y3379D01*
X251594Y2500D01*
X251429Y2000D01*
X248571D01*
X248406Y2500D01*
X248914Y3379D01*
X249200Y4447D01*
Y5553D01*
X248914Y6621D01*
X248361Y7579D01*
X247579Y8361D01*
X246621Y8914D01*
X245553Y9200D01*
X244447D01*
X243379Y8914D01*
X242421Y8361D01*
X241639Y7579D01*
X241086Y6621D01*
X240800Y5553D01*
Y4447D01*
X241086Y3379D01*
X241594Y2500D01*
X241429Y2000D01*
X238571D01*
X238406Y2500D01*
X238914Y3379D01*
X239200Y4447D01*
Y5553D01*
X238914Y6621D01*
X238361Y7579D01*
X237579Y8361D01*
X236621Y8914D01*
X235553Y9200D01*
X234447D01*
X233379Y8914D01*
X232421Y8361D01*
X231639Y7579D01*
X231086Y6621D01*
X230800Y5553D01*
Y4447D01*
X231086Y3379D01*
X231594Y2500D01*
X231429Y2000D01*
X230000D01*
Y8000D01*
X240000Y18000D01*
X252100D01*
Y23915D01*
X252452Y24150D01*
X253327D01*
X254136Y24485D01*
X254563Y24912D01*
X254990Y24485D01*
X255799Y24150D01*
X256674D01*
X257482Y24485D01*
X258101Y25104D01*
X258436Y25913D01*
Y26788D01*
X258101Y27597D01*
X257482Y28216D01*
X256674Y28550D01*
X255799D01*
X254990Y28216D01*
X254563Y27788D01*
X254136Y28216D01*
X253327Y28550D01*
X252452D01*
X252100Y28786D01*
Y42815D01*
X252204Y43066D01*
Y43942D01*
X252100Y44192D01*
Y49312D01*
X252204Y49562D01*
Y50438D01*
X252100Y50688D01*
Y55808D01*
X252204Y56059D01*
Y56934D01*
X252100Y57185D01*
Y62100D01*
X258000Y68000D01*
X251444Y74556D01*
X251365Y74746D01*
X250746Y75365D01*
X250556Y75444D01*
X246700Y79300D01*
X196600Y79300D01*
X193000Y75700D01*
X192562D01*
X191754Y75365D01*
X191135Y74746D01*
X190826Y74000D01*
X182000Y74000D01*
X178000Y70000D01*
X146103D01*
Y47300D01*
X141534D01*
Y50000D01*
X141397Y51044D01*
X141200Y51520D01*
Y70000D01*
X122700D01*
X106700Y86000D01*
X102000D01*
X97097Y90903D01*
X97162Y91399D01*
X97579Y91639D01*
X98361Y92421D01*
X98914Y93379D01*
X99200Y94447D01*
Y95553D01*
X98914Y96621D01*
X98406Y97500D01*
X98571Y98000D01*
X101429D01*
X101594Y97500D01*
X101086Y96621D01*
X100800Y95553D01*
Y94447D01*
X101086Y93379D01*
X101639Y92421D01*
X102421Y91639D01*
X103379Y91086D01*
X104447Y90800D01*
X105553D01*
X106621Y91086D01*
X107579Y91639D01*
X108361Y92421D01*
X108914Y93379D01*
X109200Y94447D01*
Y95553D01*
X108914Y96621D01*
X108406Y97500D01*
X108571Y98000D01*
X111429D01*
X111594Y97500D01*
X111086Y96621D01*
X110800Y95553D01*
Y94447D01*
X111086Y93379D01*
X111639Y92421D01*
X112421Y91639D01*
X113379Y91086D01*
X114447Y90800D01*
X115553D01*
X116621Y91086D01*
X117579Y91639D01*
X118361Y92421D01*
X118914Y93379D01*
X119200Y94447D01*
Y95553D01*
X118914Y96621D01*
X118406Y97500D01*
X118571Y98000D01*
X121429D01*
X121594Y97500D01*
X121086Y96621D01*
X120800Y95553D01*
Y94447D01*
X121086Y93379D01*
X121639Y92421D01*
X122421Y91639D01*
X123379Y91086D01*
X124447Y90800D01*
X125553D01*
X126621Y91086D01*
X127579Y91639D01*
X128361Y92421D01*
X128914Y93379D01*
X129200Y94447D01*
Y95553D01*
X128914Y96621D01*
X128406Y97500D01*
X128571Y98000D01*
X131429D01*
X131594Y97500D01*
X131086Y96621D01*
X130800Y95553D01*
Y94447D01*
X131086Y93379D01*
X131639Y92421D01*
X132421Y91639D01*
X133379Y91086D01*
X134447Y90800D01*
X135553D01*
X136621Y91086D01*
X137579Y91639D01*
X138361Y92421D01*
X138914Y93379D01*
X139200Y94447D01*
Y95553D01*
X138914Y96621D01*
X138406Y97500D01*
X138571Y98000D01*
X141429D01*
X141594Y97500D01*
X141086Y96621D01*
X140800Y95553D01*
Y94447D01*
X141086Y93379D01*
X141639Y92421D01*
X142421Y91639D01*
X143379Y91086D01*
X144447Y90800D01*
X145553D01*
X146621Y91086D01*
X147579Y91639D01*
X148361Y92421D01*
X148914Y93379D01*
X149200Y94447D01*
Y95553D01*
X148914Y96621D01*
X148406Y97500D01*
X148571Y98000D01*
X151429D01*
X151594Y97500D01*
X151086Y96621D01*
X150800Y95553D01*
Y94447D01*
X151086Y93379D01*
X151639Y92421D01*
X152421Y91639D01*
X153379Y91086D01*
X154447Y90800D01*
X155553D01*
X156621Y91086D01*
X157579Y91639D01*
X158361Y92421D01*
X158914Y93379D01*
X159200Y94447D01*
Y95553D01*
X158914Y96621D01*
X158406Y97500D01*
X158571Y98000D01*
X161429D01*
X161594Y97500D01*
X161086Y96621D01*
X160800Y95553D01*
Y94447D01*
X161086Y93379D01*
X161639Y92421D01*
X162421Y91639D01*
X163379Y91086D01*
X164447Y90800D01*
X165553D01*
X166621Y91086D01*
X167579Y91639D01*
X168361Y92421D01*
X168914Y93379D01*
X169200Y94447D01*
Y95553D01*
X168914Y96621D01*
X168406Y97500D01*
X168571Y98000D01*
X171429D01*
X171594Y97500D01*
X171086Y96621D01*
X170800Y95553D01*
Y94447D01*
X171086Y93379D01*
X171639Y92421D01*
X172421Y91639D01*
X173379Y91086D01*
X174447Y90800D01*
X175553D01*
X176621Y91086D01*
X177579Y91639D01*
X178361Y92421D01*
X178914Y93379D01*
X179200Y94447D01*
Y95553D01*
X178914Y96621D01*
X178406Y97500D01*
X178571Y98000D01*
X181429D01*
X181594Y97500D01*
X181086Y96621D01*
X180800Y95553D01*
Y94447D01*
X181086Y93379D01*
X181639Y92421D01*
X182421Y91639D01*
X183379Y91086D01*
X184447Y90800D01*
X185553D01*
X186621Y91086D01*
X187579Y91639D01*
X188361Y92421D01*
X188914Y93379D01*
X189200Y94447D01*
Y95553D01*
X188914Y96621D01*
X188406Y97500D01*
X188571Y98000D01*
X191429D01*
X191594Y97500D01*
X191086Y96621D01*
X190800Y95553D01*
Y94447D01*
X191086Y93379D01*
X191639Y92421D01*
X192421Y91639D01*
X193379Y91086D01*
X194447Y90800D01*
X195553D01*
X196621Y91086D01*
X197579Y91639D01*
X198361Y92421D01*
X198914Y93379D01*
X199200Y94447D01*
Y95553D01*
X198914Y96621D01*
X198406Y97500D01*
X198571Y98000D01*
X201429D01*
X201594Y97500D01*
X201086Y96621D01*
X200800Y95553D01*
Y94447D01*
X201086Y93379D01*
X201639Y92421D01*
X202421Y91639D01*
X203379Y91086D01*
X204447Y90800D01*
X205553D01*
X206621Y91086D01*
X207579Y91639D01*
X208361Y92421D01*
X208914Y93379D01*
X209200Y94447D01*
Y95553D01*
X208914Y96621D01*
X208406Y97500D01*
X208571Y98000D01*
X211429D01*
X211594Y97500D01*
X211086Y96621D01*
X210800Y95553D01*
Y94447D01*
X211086Y93379D01*
X211639Y92421D01*
X212421Y91639D01*
X213379Y91086D01*
X214447Y90800D01*
X215553D01*
X216621Y91086D01*
X217579Y91639D01*
X218361Y92421D01*
X218914Y93379D01*
X219200Y94447D01*
Y95553D01*
X218914Y96621D01*
X218406Y97500D01*
X218571Y98000D01*
X221429D01*
X221594Y97500D01*
X221086Y96621D01*
X220800Y95553D01*
Y94447D01*
X221086Y93379D01*
X221639Y92421D01*
X222421Y91639D01*
X223379Y91086D01*
X224447Y90800D01*
X225553D01*
X226621Y91086D01*
X227579Y91639D01*
X228361Y92421D01*
X228914Y93379D01*
X229200Y94447D01*
Y95553D01*
X228914Y96621D01*
X228406Y97500D01*
X228571Y98000D01*
X231429D01*
X231594Y97500D01*
X231086Y96621D01*
X230800Y95553D01*
Y94447D01*
X231086Y93379D01*
X231639Y92421D01*
X232421Y91639D01*
X233379Y91086D01*
X234447Y90800D01*
X235553D01*
X236621Y91086D01*
X237579Y91639D01*
X238361Y92421D01*
X238914Y93379D01*
X239200Y94447D01*
Y95553D01*
X238914Y96621D01*
X238406Y97500D01*
X238571Y98000D01*
X241429D01*
X241594Y97500D01*
X241086Y96621D01*
X240800Y95553D01*
Y94447D01*
X241086Y93379D01*
X241639Y92421D01*
X242421Y91639D01*
X242586Y91544D01*
X242550Y90988D01*
X242254Y90865D01*
X241635Y90246D01*
X241300Y89438D01*
Y88562D01*
X241635Y87754D01*
X242254Y87135D01*
X243062Y86800D01*
X243938D01*
X244746Y87135D01*
X245365Y87754D01*
X245700Y88562D01*
Y89438D01*
X245365Y90246D01*
X245273Y90338D01*
X245465Y90800D01*
X245553D01*
X246621Y91086D01*
X247579Y91639D01*
X248361Y92421D01*
X248914Y93379D01*
X249200Y94447D01*
Y95553D01*
X248914Y96621D01*
X248406Y97500D01*
X248571Y98000D01*
X260800D01*
Y90800D01*
D02*
G37*
G36*
X68000Y13400D02*
X50200D01*
Y22100D01*
X68000D01*
Y13400D01*
D02*
G37*
G36*
X256228Y7964D02*
X256953Y7545D01*
X257545Y6953D01*
X257964Y6228D01*
X258180Y5419D01*
Y4581D01*
X257964Y3772D01*
X257523Y3010D01*
X257514Y2982D01*
X257496Y2960D01*
X257450Y2795D01*
X257396Y2633D01*
X257397Y2604D01*
X257390Y2576D01*
X257395Y2531D01*
X257202Y2212D01*
X257042Y2063D01*
X256972Y2031D01*
X253028D01*
X252958Y2063D01*
X252798Y2212D01*
X252605Y2531D01*
X252610Y2576D01*
X252603Y2604D01*
X252605Y2633D01*
X252550Y2795D01*
X252504Y2960D01*
X252486Y2982D01*
X252477Y3010D01*
X252036Y3772D01*
X251820Y4581D01*
Y5419D01*
X252036Y6228D01*
X252455Y6953D01*
X253047Y7545D01*
X253772Y7964D01*
X254581Y8180D01*
X255419D01*
X256228Y7964D01*
D02*
G37*
%LPC*%
G36*
X75438Y90200D02*
X74562D01*
X73754Y89865D01*
X73135Y89246D01*
X72800Y88438D01*
Y87562D01*
X73135Y86754D01*
X73754Y86135D01*
X74562Y85800D01*
X75438D01*
X76246Y86135D01*
X76865Y86754D01*
X77200Y87562D01*
Y88438D01*
X76865Y89246D01*
X76246Y89865D01*
X75438Y90200D01*
D02*
G37*
G36*
X34898Y80683D02*
X34102D01*
X33367Y80379D01*
X32805Y79816D01*
X32500Y79081D01*
Y78285D01*
X32805Y77550D01*
X33367Y76988D01*
X34102Y76683D01*
X34898D01*
X35633Y76988D01*
X36195Y77550D01*
X36500Y78285D01*
Y79081D01*
X36195Y79816D01*
X35633Y80379D01*
X34898Y80683D01*
D02*
G37*
G36*
X48898Y80500D02*
X48102D01*
X47367Y80195D01*
X46804Y79633D01*
X46500Y78898D01*
Y78102D01*
X46804Y77367D01*
X47367Y76805D01*
X48102Y76500D01*
X48898D01*
X49633Y76805D01*
X50195Y77367D01*
X50500Y78102D01*
Y78898D01*
X50195Y79633D01*
X49633Y80195D01*
X48898Y80500D01*
D02*
G37*
G36*
X30358Y79483D02*
X29642D01*
X28980Y79209D01*
X28474Y78703D01*
X28200Y78041D01*
Y77325D01*
X28474Y76664D01*
X28980Y76157D01*
X29642Y75883D01*
X30358D01*
X31020Y76157D01*
X31526Y76664D01*
X31800Y77325D01*
Y78041D01*
X31526Y78703D01*
X31020Y79209D01*
X30358Y79483D01*
D02*
G37*
G36*
X48898Y75500D02*
X48102D01*
X47367Y75195D01*
X46804Y74633D01*
X46500Y73898D01*
Y73102D01*
X46804Y72367D01*
X47367Y71804D01*
X48102Y71500D01*
X48898D01*
X49633Y71804D01*
X50195Y72367D01*
X50500Y73102D01*
Y73898D01*
X50195Y74633D01*
X49633Y75195D01*
X48898Y75500D01*
D02*
G37*
G36*
X243288Y75850D02*
X242413D01*
X241604Y75515D01*
X240985Y74896D01*
X240650Y74087D01*
Y73212D01*
X240985Y72403D01*
X241604Y71785D01*
X242413Y71450D01*
X243288D01*
X244097Y71785D01*
X244715Y72403D01*
X245050Y73212D01*
Y74087D01*
X244715Y74896D01*
X244097Y75515D01*
X243288Y75850D01*
D02*
G37*
G36*
X236595D02*
X235720D01*
X234911Y75515D01*
X234292Y74896D01*
X233958Y74087D01*
Y73212D01*
X234292Y72403D01*
X234911Y71785D01*
X235720Y71450D01*
X236595D01*
X237404Y71785D01*
X238023Y72403D01*
X238357Y73212D01*
Y74087D01*
X238023Y74896D01*
X237404Y75515D01*
X236595Y75850D01*
D02*
G37*
G36*
X229902D02*
X229027D01*
X228218Y75515D01*
X227600Y74896D01*
X227265Y74087D01*
Y73212D01*
X227600Y72403D01*
X228218Y71785D01*
X229027Y71450D01*
X229902D01*
X230711Y71785D01*
X231330Y72403D01*
X231665Y73212D01*
Y74087D01*
X231330Y74896D01*
X230711Y75515D01*
X229902Y75850D01*
D02*
G37*
G36*
X223209D02*
X222334D01*
X221526Y75515D01*
X220907Y74896D01*
X220572Y74087D01*
Y73212D01*
X220907Y72403D01*
X221526Y71785D01*
X222334Y71450D01*
X223209D01*
X224018Y71785D01*
X224637Y72403D01*
X224972Y73212D01*
Y74087D01*
X224637Y74896D01*
X224018Y75515D01*
X223209Y75850D01*
D02*
G37*
G36*
X216516D02*
X215641D01*
X214832Y75515D01*
X214214Y74896D01*
X213879Y74087D01*
Y73212D01*
X214214Y72403D01*
X214832Y71785D01*
X215641Y71450D01*
X216516D01*
X217325Y71785D01*
X217944Y72403D01*
X218279Y73212D01*
Y74087D01*
X217944Y74896D01*
X217325Y75515D01*
X216516Y75850D01*
D02*
G37*
G36*
X246631Y69700D02*
X245755D01*
X244947Y69365D01*
X244328Y68746D01*
X243993Y67938D01*
Y67062D01*
X244328Y66254D01*
X244947Y65635D01*
X245755Y65300D01*
X246631D01*
X247439Y65635D01*
X248058Y66254D01*
X248393Y67062D01*
Y67938D01*
X248058Y68746D01*
X247439Y69365D01*
X246631Y69700D01*
D02*
G37*
G36*
X239938D02*
X239062D01*
X238254Y69365D01*
X237635Y68746D01*
X237300Y67938D01*
Y67062D01*
X237635Y66254D01*
X238254Y65635D01*
X239062Y65300D01*
X239938D01*
X240746Y65635D01*
X241365Y66254D01*
X241700Y67062D01*
Y67938D01*
X241365Y68746D01*
X240746Y69365D01*
X239938Y69700D01*
D02*
G37*
G36*
X233245D02*
X232369D01*
X231561Y69365D01*
X230942Y68746D01*
X230607Y67938D01*
Y67062D01*
X230942Y66254D01*
X231561Y65635D01*
X232369Y65300D01*
X233245D01*
X234053Y65635D01*
X234672Y66254D01*
X235007Y67062D01*
Y67938D01*
X234672Y68746D01*
X234053Y69365D01*
X233245Y69700D01*
D02*
G37*
G36*
X226552D02*
X225677D01*
X224868Y69365D01*
X224249Y68746D01*
X223914Y67938D01*
Y67062D01*
X224249Y66254D01*
X224868Y65635D01*
X225677Y65300D01*
X226552D01*
X227360Y65635D01*
X227979Y66254D01*
X228314Y67062D01*
Y67938D01*
X227979Y68746D01*
X227360Y69365D01*
X226552Y69700D01*
D02*
G37*
G36*
X219859D02*
X218984D01*
X218175Y69365D01*
X217556Y68746D01*
X217221Y67938D01*
Y67062D01*
X217556Y66254D01*
X218175Y65635D01*
X218984Y65300D01*
X219859D01*
X220668Y65635D01*
X221286Y66254D01*
X221621Y67062D01*
Y67938D01*
X221286Y68746D01*
X220668Y69365D01*
X219859Y69700D01*
D02*
G37*
G36*
X183338Y68300D02*
X182462D01*
X181654Y67965D01*
X181035Y67346D01*
X180700Y66538D01*
Y65662D01*
X181035Y64854D01*
X181654Y64235D01*
X182462Y63900D01*
X183338D01*
X184146Y64235D01*
X184765Y64854D01*
X185100Y65662D01*
Y66538D01*
X184765Y67346D01*
X184146Y67965D01*
X183338Y68300D01*
D02*
G37*
G36*
X62438Y67200D02*
X61562D01*
X60754Y66865D01*
X60135Y66246D01*
X59800Y65438D01*
Y64562D01*
X60135Y63754D01*
X60754Y63135D01*
X61562Y62800D01*
X62438D01*
X63246Y63135D01*
X63865Y63754D01*
X64200Y64562D01*
Y65438D01*
X63865Y66246D01*
X63246Y66865D01*
X62438Y67200D01*
D02*
G37*
G36*
X175438Y63700D02*
X174562D01*
X173754Y63365D01*
X173135Y62746D01*
X172800Y61938D01*
Y61062D01*
X173135Y60254D01*
X173754Y59635D01*
X174562Y59300D01*
X175438D01*
X176246Y59635D01*
X176865Y60254D01*
X177200Y61062D01*
Y61938D01*
X176865Y62746D01*
X176246Y63365D01*
X175438Y63700D01*
D02*
G37*
G36*
X170438Y62200D02*
X169562D01*
X168754Y61865D01*
X168135Y61246D01*
X167800Y60438D01*
Y59562D01*
X168037Y58990D01*
X167654Y58608D01*
X167436Y58698D01*
X166560D01*
X165752Y58363D01*
X165133Y57744D01*
X164798Y56936D01*
Y56061D01*
X165133Y55252D01*
X165752Y54633D01*
X166560Y54298D01*
X167436D01*
X168244Y54633D01*
X168863Y55252D01*
X169198Y56061D01*
Y56936D01*
X168961Y57508D01*
X169344Y57890D01*
X169562Y57800D01*
X170438D01*
X171246Y58135D01*
X171865Y58754D01*
X172200Y59562D01*
Y60438D01*
X171865Y61246D01*
X171246Y61865D01*
X170438Y62200D01*
D02*
G37*
G36*
X150438Y62700D02*
X149562D01*
X148754Y62365D01*
X148135Y61746D01*
X147800Y60938D01*
Y60062D01*
X148135Y59254D01*
X148754Y58635D01*
X149562Y58300D01*
X150438D01*
X151246Y58635D01*
X151865Y59254D01*
X152200Y60062D01*
Y60938D01*
X151865Y61746D01*
X151246Y62365D01*
X150438Y62700D01*
D02*
G37*
G36*
X156347Y60609D02*
X155472D01*
X154663Y60274D01*
X154044Y59655D01*
X153709Y58847D01*
Y57972D01*
X154044Y57163D01*
X154663Y56544D01*
X155472Y56209D01*
X156347D01*
X157155Y56544D01*
X157774Y57163D01*
X158109Y57972D01*
Y58847D01*
X157774Y59655D01*
X157155Y60274D01*
X156347Y60609D01*
D02*
G37*
G36*
X202698Y54300D02*
X201902D01*
X201167Y53996D01*
X200605Y53433D01*
X200300Y52698D01*
Y51902D01*
X200605Y51167D01*
X201167Y50604D01*
X201902Y50300D01*
X202698D01*
X203433Y50604D01*
X203995Y51167D01*
X204300Y51902D01*
Y52698D01*
X203995Y53433D01*
X203433Y53996D01*
X202698Y54300D01*
D02*
G37*
G36*
X150438Y52700D02*
X149562D01*
X148754Y52365D01*
X148135Y51746D01*
X147800Y50938D01*
Y50062D01*
X148135Y49254D01*
X148754Y48635D01*
X149562Y48300D01*
X150438D01*
X151246Y48635D01*
X151865Y49254D01*
X152200Y50062D01*
Y50938D01*
X151865Y51746D01*
X151246Y52365D01*
X150438Y52700D01*
D02*
G37*
G36*
X62438Y52200D02*
X61562D01*
X60754Y51865D01*
X60135Y51246D01*
X59800Y50438D01*
Y49562D01*
X60135Y48754D01*
X60754Y48135D01*
X61562Y47800D01*
X62438D01*
X63246Y48135D01*
X63865Y48754D01*
X64200Y49562D01*
Y50438D01*
X63865Y51246D01*
X63246Y51865D01*
X62438Y52200D01*
D02*
G37*
G36*
X188398Y53000D02*
X187602D01*
X186867Y52696D01*
X186304Y52133D01*
X186000Y51398D01*
Y50602D01*
X186304Y49867D01*
X186867Y49305D01*
X187602Y49000D01*
Y48506D01*
X186867Y48202D01*
X186304Y47639D01*
X186000Y46904D01*
Y46108D01*
X186304Y45373D01*
X186867Y44811D01*
X187602Y44506D01*
X188398D01*
X189133Y44811D01*
X189696Y45373D01*
X190000Y46108D01*
Y46904D01*
X189696Y47639D01*
X189133Y48202D01*
X188398Y48506D01*
Y49000D01*
X189133Y49305D01*
X189696Y49867D01*
X190000Y50602D01*
Y51398D01*
X189696Y52133D01*
X189133Y52696D01*
X188398Y53000D01*
D02*
G37*
G36*
X202498Y46800D02*
X201702D01*
X200967Y46496D01*
X200405Y45933D01*
X200100Y45198D01*
Y44402D01*
X200405Y43667D01*
X200967Y43104D01*
X201702Y42800D01*
X202498D01*
X203233Y43104D01*
X203796Y43667D01*
X204100Y44402D01*
Y45198D01*
X203796Y45933D01*
X203233Y46496D01*
X202498Y46800D01*
D02*
G37*
G36*
X40500Y58000D02*
X34500D01*
Y52000D01*
X34613D01*
X34902Y51500D01*
X34704Y51158D01*
X34500Y50395D01*
Y49605D01*
X34704Y48842D01*
X35099Y48158D01*
X35418Y47839D01*
X35604Y47500D01*
X35418Y47161D01*
X35099Y46842D01*
X34704Y46158D01*
X34500Y45395D01*
Y44605D01*
X34704Y43842D01*
X35099Y43158D01*
X35658Y42599D01*
X36342Y42204D01*
X37105Y42000D01*
X37895D01*
X38658Y42204D01*
X39342Y42599D01*
X39901Y43158D01*
X40296Y43842D01*
X40500Y44605D01*
Y45395D01*
X40296Y46158D01*
X39901Y46842D01*
X39582Y47161D01*
X39396Y47500D01*
X39582Y47839D01*
X39901Y48158D01*
X40296Y48842D01*
X40500Y49605D01*
Y50395D01*
X40296Y51158D01*
X40098Y51500D01*
X40387Y52000D01*
X40500D01*
Y58000D01*
D02*
G37*
G36*
X189028Y40928D02*
X188153D01*
X187345Y40593D01*
X186726Y39974D01*
X186391Y39165D01*
Y38290D01*
X186726Y37481D01*
X187345Y36862D01*
X188153Y36528D01*
X189028D01*
X189837Y36862D01*
X190456Y37481D01*
X190791Y38290D01*
Y39165D01*
X190456Y39974D01*
X189837Y40593D01*
X189028Y40928D01*
D02*
G37*
G36*
X171438Y40900D02*
X170562D01*
X169754Y40565D01*
X169135Y39946D01*
X168800Y39138D01*
Y38262D01*
X169135Y37454D01*
X169754Y36835D01*
X170562Y36500D01*
X171438D01*
X172246Y36835D01*
X172865Y37454D01*
X173200Y38262D01*
Y39138D01*
X172865Y39946D01*
X172246Y40565D01*
X171438Y40900D01*
D02*
G37*
G36*
X197193Y40455D02*
X196318D01*
X195509Y40120D01*
X194890Y39501D01*
X194555Y38693D01*
Y37817D01*
X194890Y37009D01*
X195509Y36390D01*
X196318Y36055D01*
X197193D01*
X198001Y36390D01*
X198620Y37009D01*
X198955Y37817D01*
Y38693D01*
X198620Y39501D01*
X198001Y40120D01*
X197193Y40455D01*
D02*
G37*
G36*
X179438Y39200D02*
X178562D01*
X177754Y38865D01*
X177135Y38246D01*
X176800Y37438D01*
Y36562D01*
X177135Y35754D01*
X177754Y35135D01*
X178562Y34800D01*
X179438D01*
X180246Y35135D01*
X180865Y35754D01*
X181200Y36562D01*
Y37438D01*
X180865Y38246D01*
X180246Y38865D01*
X179438Y39200D01*
D02*
G37*
G36*
X243292Y34700D02*
X242417D01*
X241608Y34365D01*
X240989Y33746D01*
X240654Y32938D01*
Y32062D01*
X240989Y31254D01*
X241608Y30635D01*
X242417Y30300D01*
X243292D01*
X244100Y30635D01*
X244719Y31254D01*
X245054Y32062D01*
Y32938D01*
X244719Y33746D01*
X244100Y34365D01*
X243292Y34700D01*
D02*
G37*
G36*
X236599D02*
X235724D01*
X234915Y34365D01*
X234296Y33746D01*
X233961Y32938D01*
Y32062D01*
X234296Y31254D01*
X234915Y30635D01*
X235724Y30300D01*
X236599D01*
X237408Y30635D01*
X238026Y31254D01*
X238361Y32062D01*
Y32938D01*
X238026Y33746D01*
X237408Y34365D01*
X236599Y34700D01*
D02*
G37*
G36*
X229906D02*
X229031D01*
X228222Y34365D01*
X227603Y33746D01*
X227269Y32938D01*
Y32062D01*
X227603Y31254D01*
X228222Y30635D01*
X229031Y30300D01*
X229906D01*
X230715Y30635D01*
X231334Y31254D01*
X231668Y32062D01*
Y32938D01*
X231334Y33746D01*
X230715Y34365D01*
X229906Y34700D01*
D02*
G37*
G36*
X223213D02*
X222338D01*
X221529Y34365D01*
X220911Y33746D01*
X220576Y32938D01*
Y32062D01*
X220911Y31254D01*
X221529Y30635D01*
X222338Y30300D01*
X223213D01*
X224022Y30635D01*
X224641Y31254D01*
X224976Y32062D01*
Y32938D01*
X224641Y33746D01*
X224022Y34365D01*
X223213Y34700D01*
D02*
G37*
G36*
X216520D02*
X215645D01*
X214837Y34365D01*
X214218Y33746D01*
X213883Y32938D01*
Y32062D01*
X214218Y31254D01*
X214837Y30635D01*
X215645Y30300D01*
X216520D01*
X217329Y30635D01*
X217948Y31254D01*
X218283Y32062D01*
Y32938D01*
X217948Y33746D01*
X217329Y34365D01*
X216520Y34700D01*
D02*
G37*
G36*
X188438Y32700D02*
X187562D01*
X186754Y32365D01*
X186135Y31746D01*
X185800Y30938D01*
Y30062D01*
X186135Y29254D01*
X186754Y28635D01*
X187562Y28300D01*
X188438D01*
X189246Y28635D01*
X189865Y29254D01*
X190200Y30062D01*
Y30938D01*
X189865Y31746D01*
X189246Y32365D01*
X188438Y32700D01*
D02*
G37*
G36*
X198016Y32121D02*
X197141D01*
X196333Y31786D01*
X195714Y31168D01*
X195379Y30359D01*
Y29484D01*
X195714Y28675D01*
X196333Y28056D01*
X197141Y27721D01*
X198016D01*
X198825Y28056D01*
X199444Y28675D01*
X199779Y29484D01*
Y30359D01*
X199444Y31168D01*
X198825Y31786D01*
X198016Y32121D01*
D02*
G37*
G36*
X219938Y28700D02*
X219062D01*
X218254Y28365D01*
X217635Y27746D01*
X217300Y26938D01*
Y26062D01*
X217635Y25254D01*
X218254Y24635D01*
X219062Y24300D01*
X219938D01*
X220746Y24635D01*
X221365Y25254D01*
X221700Y26062D01*
Y26938D01*
X221365Y27746D01*
X220746Y28365D01*
X219938Y28700D01*
D02*
G37*
G36*
X246635Y28550D02*
X245759D01*
X244951Y28216D01*
X244332Y27597D01*
X243997Y26788D01*
Y25913D01*
X244332Y25104D01*
X244951Y24485D01*
X245759Y24150D01*
X246635D01*
X247443Y24485D01*
X248062Y25104D01*
X248397Y25913D01*
Y26788D01*
X248062Y27597D01*
X247443Y28216D01*
X246635Y28550D01*
D02*
G37*
G36*
X239942D02*
X239066D01*
X238258Y28216D01*
X237639Y27597D01*
X237304Y26788D01*
Y25913D01*
X237639Y25104D01*
X238258Y24485D01*
X239066Y24150D01*
X239942D01*
X240750Y24485D01*
X241369Y25104D01*
X241704Y25913D01*
Y26788D01*
X241369Y27597D01*
X240750Y28216D01*
X239942Y28550D01*
D02*
G37*
G36*
X233249D02*
X232373D01*
X231565Y28216D01*
X230946Y27597D01*
X230611Y26788D01*
Y25913D01*
X230946Y25104D01*
X231565Y24485D01*
X232373Y24150D01*
X233249D01*
X234057Y24485D01*
X234676Y25104D01*
X235011Y25913D01*
Y26788D01*
X234676Y27597D01*
X234057Y28216D01*
X233249Y28550D01*
D02*
G37*
G36*
X226556D02*
X225680D01*
X224872Y28216D01*
X224253Y27597D01*
X223918Y26788D01*
Y25913D01*
X224253Y25104D01*
X224872Y24485D01*
X225680Y24150D01*
X226556D01*
X227364Y24485D01*
X227983Y25104D01*
X228318Y25913D01*
Y26788D01*
X227983Y27597D01*
X227364Y28216D01*
X226556Y28550D01*
D02*
G37*
G36*
X78098Y27300D02*
X77302D01*
X76567Y26996D01*
X76004Y26433D01*
X75700Y25698D01*
Y24902D01*
X76004Y24167D01*
X76567Y23605D01*
X77302Y23300D01*
X78098D01*
X78833Y23605D01*
X79143Y23915D01*
X79704Y23867D01*
X79727Y23845D01*
X80267Y23304D01*
X81002Y23000D01*
X81798D01*
X82533Y23304D01*
X83096Y23867D01*
X83400Y24602D01*
Y25398D01*
X83096Y26133D01*
X82533Y26695D01*
X81798Y27000D01*
X81002D01*
X80267Y26695D01*
X79957Y26385D01*
X79396Y26433D01*
X79373Y26455D01*
X78833Y26996D01*
X78098Y27300D01*
D02*
G37*
G36*
X133438Y86200D02*
X132562D01*
X131754Y85865D01*
X131135Y85246D01*
X130800Y84438D01*
Y83562D01*
X131135Y82754D01*
X131754Y82135D01*
X132562Y81800D01*
X133438D01*
X134246Y82135D01*
X134865Y82754D01*
X135200Y83562D01*
Y84438D01*
X134865Y85246D01*
X134246Y85865D01*
X133438Y86200D01*
D02*
G37*
G36*
X259938Y84283D02*
X259062D01*
X258254Y83948D01*
X257635Y83329D01*
X257300Y82520D01*
Y81645D01*
X257635Y80836D01*
X258254Y80218D01*
X259062Y79883D01*
X259938D01*
X260746Y80218D01*
X261365Y80836D01*
X261700Y81645D01*
Y82520D01*
X261365Y83329D01*
X260746Y83948D01*
X259938Y84283D01*
D02*
G37*
G36*
X160024Y82286D02*
X159148D01*
X158340Y81951D01*
X157721Y81332D01*
X157386Y80524D01*
Y79648D01*
X157721Y78840D01*
X158340Y78221D01*
X159148Y77886D01*
X160024D01*
X160832Y78221D01*
X161451Y78840D01*
X161786Y79648D01*
Y80524D01*
X161451Y81332D01*
X160832Y81951D01*
X160024Y82286D01*
D02*
G37*
G36*
X167438Y82200D02*
X166562D01*
X165754Y81865D01*
X165135Y81246D01*
X164800Y80438D01*
Y79562D01*
X165135Y78754D01*
X165754Y78135D01*
X166562Y77800D01*
X167438D01*
X168246Y78135D01*
X168865Y78754D01*
X169200Y79562D01*
Y80438D01*
X168865Y81246D01*
X168246Y81865D01*
X167438Y82200D01*
D02*
G37*
G36*
X260020Y75850D02*
X259145D01*
X258336Y75515D01*
X257718Y74896D01*
X257383Y74087D01*
Y73212D01*
X257718Y72403D01*
X258336Y71785D01*
X259145Y71450D01*
X260020D01*
X260829Y71785D01*
X261234Y72190D01*
X261288Y72179D01*
X261740Y71727D01*
X261324Y71311D01*
X260989Y70502D01*
Y69627D01*
X261324Y68818D01*
X261726Y68416D01*
X261288Y67979D01*
X260953Y67170D01*
Y66295D01*
X261288Y65486D01*
X261716Y65059D01*
X261288Y64632D01*
X260953Y63823D01*
Y62948D01*
X261288Y62140D01*
X261716Y61713D01*
X261288Y61286D01*
X260953Y60477D01*
Y59602D01*
X261288Y58793D01*
X261716Y58366D01*
X261288Y57939D01*
X260953Y57130D01*
Y56255D01*
X261288Y55447D01*
X261716Y55020D01*
X261288Y54593D01*
X260953Y53784D01*
Y52909D01*
X261288Y52100D01*
X261716Y51673D01*
X261288Y51246D01*
X260953Y50438D01*
Y49562D01*
X261288Y48754D01*
X261716Y48327D01*
X261288Y47900D01*
X260953Y47091D01*
Y46216D01*
X261288Y45407D01*
X261716Y44980D01*
X261288Y44553D01*
X260953Y43745D01*
Y42869D01*
X261288Y42061D01*
X261716Y41634D01*
X261288Y41207D01*
X260953Y40398D01*
Y39523D01*
X261288Y38714D01*
X261716Y38287D01*
X261288Y37860D01*
X260953Y37052D01*
Y36177D01*
X261288Y35368D01*
X261716Y34941D01*
X261288Y34514D01*
X260953Y33705D01*
Y32830D01*
X261288Y32021D01*
X261716Y31594D01*
X261288Y31168D01*
X260953Y30359D01*
Y29484D01*
X261288Y28675D01*
X261716Y28248D01*
X261288Y27821D01*
X260953Y27012D01*
Y26137D01*
X261288Y25329D01*
X261907Y24710D01*
X262716Y24375D01*
X263591D01*
X264400Y24710D01*
X265019Y25329D01*
X265353Y26137D01*
Y27012D01*
X265019Y27821D01*
X264592Y28248D01*
X265019Y28675D01*
X265353Y29484D01*
Y30359D01*
X265019Y31168D01*
X264592Y31594D01*
X265019Y32021D01*
X265353Y32830D01*
Y33705D01*
X265019Y34514D01*
X264592Y34941D01*
X265019Y35368D01*
X265353Y36177D01*
Y37052D01*
X265019Y37860D01*
X264592Y38287D01*
X265019Y38714D01*
X265353Y39523D01*
Y40398D01*
X265019Y41207D01*
X264592Y41634D01*
X265019Y42061D01*
X265353Y42869D01*
Y43745D01*
X265019Y44553D01*
X264592Y44980D01*
X265019Y45407D01*
X265353Y46216D01*
Y47091D01*
X265019Y47900D01*
X264592Y48327D01*
X265019Y48754D01*
X265353Y49562D01*
Y50438D01*
X265019Y51246D01*
X264592Y51673D01*
X265019Y52100D01*
X265353Y52909D01*
Y53784D01*
X265019Y54593D01*
X264592Y55020D01*
X265019Y55447D01*
X265353Y56255D01*
Y57130D01*
X265019Y57939D01*
X264592Y58366D01*
X265019Y58793D01*
X265353Y59602D01*
Y60477D01*
X265019Y61286D01*
X264592Y61713D01*
X265019Y62140D01*
X265353Y62948D01*
Y63823D01*
X265019Y64632D01*
X264592Y65059D01*
X265019Y65486D01*
X265353Y66295D01*
Y67170D01*
X265019Y67979D01*
X264616Y68381D01*
X265054Y68818D01*
X265389Y69627D01*
Y70502D01*
X265054Y71311D01*
X264602Y71763D01*
X265019Y72179D01*
X265353Y72988D01*
Y73863D01*
X265019Y74671D01*
X264400Y75290D01*
X263591Y75625D01*
X262716D01*
X261907Y75290D01*
X261502Y74885D01*
X261448Y74896D01*
X260829Y75515D01*
X260020Y75850D01*
D02*
G37*
G36*
X265438Y20700D02*
X264562D01*
X263754Y20365D01*
X263135Y19746D01*
X262800Y18938D01*
Y18062D01*
X263135Y17254D01*
X263754Y16635D01*
X264562Y16300D01*
X265438D01*
X266246Y16635D01*
X266865Y17254D01*
X267200Y18062D01*
Y18938D01*
X266865Y19746D01*
X266246Y20365D01*
X265438Y20700D01*
D02*
G37*
%LPD*%
G36*
X260251Y74650D02*
X260727Y74175D01*
X260810Y74119D01*
X260881Y74048D01*
X260974Y74010D01*
X261058Y73954D01*
X261112Y73943D01*
X261112D01*
X261156Y73934D01*
X261249Y73896D01*
X261303Y73885D01*
X261404Y73885D01*
X261502Y73865D01*
X261600Y73885D01*
X261701Y73885D01*
X261794Y73923D01*
X261892Y73943D01*
X261976Y73999D01*
X262069Y74037D01*
X262140Y74108D01*
X262223Y74164D01*
X262485Y74426D01*
X262919Y74606D01*
X263388D01*
X263822Y74426D01*
X264154Y74094D01*
X264334Y73660D01*
Y73190D01*
X264154Y72757D01*
X263881Y72483D01*
X263660Y72153D01*
X263582Y71763D01*
X263660Y71372D01*
X263881Y71042D01*
X264190Y70733D01*
X264369Y70299D01*
Y69829D01*
X264190Y69396D01*
X263896Y69102D01*
X263674Y68771D01*
X263597Y68381D01*
X263674Y67990D01*
X263896Y67660D01*
X264154Y67401D01*
X264334Y66967D01*
Y66497D01*
X264154Y66064D01*
X263871Y65780D01*
Y65780D01*
X263871D01*
X263650Y65449D01*
X263587Y65137D01*
X263572Y65059D01*
Y65059D01*
D01*
X263650Y64669D01*
X263797Y64448D01*
X263871Y64338D01*
X263871D01*
Y64338D01*
X264154Y64055D01*
X264334Y63621D01*
Y63151D01*
X264154Y62717D01*
X263871Y62434D01*
X263650Y62103D01*
X263572Y61713D01*
X263650Y61322D01*
X263871Y60992D01*
X264154Y60708D01*
X264334Y60274D01*
Y59805D01*
X264154Y59371D01*
X263871Y59087D01*
X263650Y58756D01*
X263572Y58366D01*
X263650Y57976D01*
X263871Y57645D01*
X264154Y57362D01*
X264334Y56928D01*
Y56458D01*
X264154Y56024D01*
X263871Y55741D01*
X263650Y55410D01*
X263572Y55020D01*
Y55020D01*
Y55020D01*
X263603Y54864D01*
X263650Y54629D01*
X263650Y54629D01*
Y54629D01*
X263761Y54463D01*
X263871Y54299D01*
X263871D01*
Y54299D01*
X264154Y54015D01*
X264334Y53581D01*
Y53112D01*
X264154Y52678D01*
X263871Y52394D01*
X263650Y52063D01*
X263572Y51673D01*
X263650Y51283D01*
X263871Y50952D01*
X264154Y50669D01*
X264334Y50235D01*
Y49765D01*
X264154Y49331D01*
X263871Y49048D01*
X263650Y48717D01*
X263572Y48327D01*
X263650Y47937D01*
X263871Y47606D01*
X264154Y47322D01*
X264334Y46888D01*
Y46419D01*
X264154Y45985D01*
X263871Y45701D01*
Y45701D01*
X263871D01*
X263650Y45371D01*
X263587Y45058D01*
X263572Y44980D01*
Y44980D01*
D01*
X263650Y44590D01*
X263797Y44369D01*
X263871Y44259D01*
X263871D01*
Y44259D01*
X264154Y43976D01*
X264334Y43542D01*
Y43072D01*
X264154Y42638D01*
X263871Y42355D01*
X263650Y42024D01*
X263572Y41634D01*
X263650Y41244D01*
X263871Y40913D01*
X264154Y40629D01*
X264334Y40195D01*
Y39726D01*
X264154Y39292D01*
X263871Y39008D01*
X263650Y38678D01*
X263572Y38287D01*
X263650Y37897D01*
X263871Y37566D01*
X264154Y37283D01*
X264334Y36849D01*
Y36379D01*
X264154Y35945D01*
X263871Y35662D01*
X263650Y35331D01*
X263572Y34941D01*
Y34941D01*
Y34941D01*
X263603Y34786D01*
X263650Y34551D01*
X263650Y34551D01*
Y34551D01*
X263761Y34384D01*
X263871Y34220D01*
X263871D01*
Y34220D01*
X264154Y33936D01*
X264334Y33503D01*
Y33033D01*
X264154Y32599D01*
X263871Y32315D01*
X263650Y31985D01*
X263572Y31594D01*
X263650Y31204D01*
X263871Y30874D01*
X264154Y30590D01*
X264334Y30156D01*
Y29686D01*
X264154Y29253D01*
X263871Y28969D01*
X263650Y28638D01*
X263572Y28248D01*
X263650Y27858D01*
X263871Y27527D01*
X264154Y27244D01*
X264334Y26810D01*
Y26340D01*
X264154Y25906D01*
X263822Y25574D01*
X263388Y25394D01*
X262919D01*
X262485Y25574D01*
X262153Y25906D01*
X261973Y26340D01*
Y26810D01*
X262153Y27244D01*
X262437Y27527D01*
X262657Y27858D01*
X262735Y28248D01*
X262657Y28638D01*
X262437Y28969D01*
X262153Y29253D01*
X261973Y29686D01*
Y30156D01*
X262153Y30590D01*
X262437Y30874D01*
X262657Y31204D01*
X262735Y31594D01*
X262657Y31985D01*
X262437Y32315D01*
X262153Y32599D01*
X261973Y33033D01*
Y33503D01*
X262153Y33936D01*
X262437Y34220D01*
Y34220D01*
X262437D01*
X262657Y34551D01*
X262720Y34863D01*
X262735Y34941D01*
Y34941D01*
D01*
X262657Y35331D01*
X262510Y35552D01*
X262437Y35662D01*
X262437D01*
Y35662D01*
X262153Y35945D01*
X261973Y36379D01*
Y36849D01*
X262153Y37283D01*
X262437Y37566D01*
X262657Y37897D01*
X262735Y38287D01*
X262657Y38678D01*
X262437Y39008D01*
X262153Y39292D01*
X261973Y39726D01*
Y40195D01*
X262153Y40629D01*
X262437Y40913D01*
X262657Y41244D01*
X262735Y41634D01*
X262657Y42024D01*
X262437Y42355D01*
X262153Y42638D01*
X261973Y43072D01*
Y43542D01*
X262153Y43976D01*
X262437Y44259D01*
X262657Y44590D01*
X262735Y44980D01*
Y44980D01*
Y44980D01*
X262704Y45136D01*
X262657Y45371D01*
X262657Y45371D01*
Y45371D01*
X262546Y45537D01*
X262437Y45701D01*
X262437D01*
Y45701D01*
X262153Y45985D01*
X261973Y46419D01*
Y46888D01*
X262153Y47322D01*
X262437Y47606D01*
X262657Y47937D01*
X262735Y48327D01*
X262657Y48717D01*
X262437Y49048D01*
X262153Y49331D01*
X261973Y49765D01*
Y50235D01*
X262153Y50669D01*
X262437Y50952D01*
X262657Y51283D01*
X262735Y51673D01*
X262657Y52063D01*
X262437Y52394D01*
X262153Y52678D01*
X261973Y53112D01*
Y53581D01*
X262153Y54015D01*
X262437Y54299D01*
Y54299D01*
X262437D01*
X262657Y54629D01*
X262720Y54942D01*
X262735Y55020D01*
Y55020D01*
D01*
X262657Y55410D01*
X262510Y55631D01*
X262437Y55741D01*
X262437D01*
Y55741D01*
X262153Y56024D01*
X261973Y56458D01*
Y56928D01*
X262153Y57362D01*
X262437Y57645D01*
X262657Y57976D01*
X262735Y58366D01*
X262657Y58756D01*
X262437Y59087D01*
X262153Y59371D01*
X261973Y59805D01*
Y60274D01*
X262153Y60708D01*
X262437Y60992D01*
X262657Y61322D01*
X262735Y61713D01*
X262657Y62103D01*
X262437Y62434D01*
X262153Y62717D01*
X261973Y63151D01*
Y63621D01*
X262153Y64055D01*
X262437Y64338D01*
X262657Y64669D01*
X262735Y65059D01*
Y65059D01*
Y65059D01*
X262704Y65214D01*
X262657Y65449D01*
X262657Y65449D01*
Y65449D01*
X262546Y65616D01*
X262437Y65780D01*
X262437D01*
Y65780D01*
X262153Y66064D01*
X261973Y66497D01*
Y66967D01*
X262153Y67401D01*
X262447Y67695D01*
X262668Y68026D01*
X262746Y68416D01*
X262668Y68806D01*
X262447Y69137D01*
X262188Y69396D01*
X262009Y69829D01*
Y70299D01*
X262188Y70733D01*
X262461Y71006D01*
X262682Y71337D01*
X262760Y71727D01*
X262682Y72117D01*
X262461Y72448D01*
X262009Y72900D01*
X261926Y72956D01*
X261855Y73027D01*
X261762Y73065D01*
X261679Y73121D01*
X261624Y73132D01*
X261624D01*
X261580Y73141D01*
X261487Y73179D01*
X261433Y73190D01*
X261333Y73190D01*
X261234Y73209D01*
X261136Y73190D01*
X261035Y73190D01*
X260943Y73151D01*
X260844Y73132D01*
X260760Y73076D01*
X260668Y73038D01*
X260597Y72967D01*
X260513Y72911D01*
X260251Y72649D01*
X259818Y72469D01*
X259348D01*
X258961Y72629D01*
X258562Y73028D01*
X258402Y73415D01*
Y73884D01*
X258582Y74318D01*
X258914Y74650D01*
X259348Y74830D01*
X259818D01*
X260251Y74650D01*
D02*
G37*
D53*
X5752Y60984D02*
D03*
Y95000D02*
D03*
X6752Y5000D02*
D03*
Y39016D02*
D03*
D54*
X21500Y60984D02*
D03*
Y95000D02*
D03*
X22500Y5000D02*
D03*
Y39016D02*
D03*
D63*
X253050Y89050D02*
X253100Y89100D01*
X247550Y89050D02*
X253050D01*
X247500Y89000D02*
X247550Y89050D01*
D64*
X258265Y70450D02*
X259436Y69278D01*
Y19464D02*
Y69278D01*
X247600Y81107D02*
X258257Y70450D01*
X258265D01*
X265000Y5000D02*
Y13900D01*
X259436Y19464D02*
X265000Y13900D01*
X247600Y81107D02*
Y82600D01*
D66*
X37500Y55000D02*
D03*
D67*
Y50000D02*
D03*
Y45000D02*
D03*
X143500Y50000D02*
D03*
D68*
X137500D02*
D03*
D69*
X55000Y95000D02*
D03*
X255000D02*
D03*
X65000D02*
D03*
X255000Y5000D02*
D03*
X45000Y95000D02*
D03*
X35000Y5000D02*
D03*
X45000D02*
D03*
X55000D02*
D03*
X65000D02*
D03*
X75000D02*
D03*
X85000D02*
D03*
X95000D02*
D03*
X105000D02*
D03*
X115000D02*
D03*
X125000D02*
D03*
X135000D02*
D03*
X145000D02*
D03*
X155000D02*
D03*
X165000D02*
D03*
X175000D02*
D03*
X185000D02*
D03*
X195000D02*
D03*
X205000D02*
D03*
X215000D02*
D03*
X225000D02*
D03*
X235000D02*
D03*
X245000D02*
D03*
Y95000D02*
D03*
X235000D02*
D03*
X225000D02*
D03*
X215000D02*
D03*
X205000D02*
D03*
X195000D02*
D03*
X185000D02*
D03*
X175000D02*
D03*
X165000D02*
D03*
X155000D02*
D03*
X145000D02*
D03*
X135000D02*
D03*
X125000D02*
D03*
X115000D02*
D03*
X105000D02*
D03*
X95000D02*
D03*
X85000D02*
D03*
X75000D02*
D03*
X35000D02*
D03*
D70*
X265000Y5000D02*
D03*
Y95000D02*
D03*
D71*
X46970Y22479D02*
D03*
X46600Y19300D02*
D03*
X36000Y86204D02*
D03*
X34500Y78683D02*
D03*
X30000Y77683D02*
D03*
X37000Y72800D02*
D03*
X44881Y70602D02*
D03*
X78500Y54000D02*
D03*
X182900Y66100D02*
D03*
X195000Y70100D02*
D03*
X175000Y61500D02*
D03*
X179000Y63500D02*
D03*
X170000Y60000D02*
D03*
X96000Y88000D02*
D03*
X56500Y15100D02*
D03*
X52100D02*
D03*
X61626Y15257D02*
D03*
X62000Y50000D02*
D03*
X81566Y85066D02*
D03*
X253100Y89100D02*
D03*
X247500Y89000D02*
D03*
X181500Y76200D02*
D03*
X78000Y48000D02*
D03*
X62000Y65000D02*
D03*
X188000Y51000D02*
D03*
X75000Y88000D02*
D03*
X69000Y75000D02*
D03*
Y79000D02*
D03*
X72732Y65268D02*
D03*
X73000Y75000D02*
D03*
Y79000D02*
D03*
X166998Y56498D02*
D03*
X150000Y60500D02*
D03*
X155909Y58409D02*
D03*
X161500Y63000D02*
D03*
X47500Y58500D02*
D03*
X29000Y90500D02*
D03*
X31000Y58500D02*
D03*
X27500Y62000D02*
D03*
X48500Y78500D02*
D03*
Y73500D02*
D03*
X44100Y81400D02*
D03*
X171000Y38700D02*
D03*
X179000Y37000D02*
D03*
X196755Y38255D02*
D03*
X188591Y38728D02*
D03*
X183000Y52000D02*
D03*
Y45500D02*
D03*
X188000Y46506D02*
D03*
X98900Y47200D02*
D03*
X114943Y47199D02*
D03*
X110500Y40198D02*
D03*
X114500D02*
D03*
X106500D02*
D03*
X102943Y47199D02*
D03*
X110943D02*
D03*
X102500Y40198D02*
D03*
X106943Y47199D02*
D03*
X114500Y33500D02*
D03*
X98557Y40500D02*
D03*
X102500Y33500D02*
D03*
X98557D02*
D03*
X106500D02*
D03*
X110500D02*
D03*
X123000Y39500D02*
D03*
X81400Y25000D02*
D03*
X77700Y25300D02*
D03*
X155500Y41500D02*
D03*
X45000Y15000D02*
D03*
Y25000D02*
D03*
X37500Y16000D02*
D03*
X37000Y24000D02*
D03*
X206500Y45000D02*
D03*
X206200Y52300D02*
D03*
X83300Y22300D02*
D03*
X74000Y22500D02*
D03*
X202100Y44800D02*
D03*
X202300Y52300D02*
D03*
X32500Y41500D02*
D03*
X29000Y38500D02*
D03*
X48000Y34000D02*
D03*
X30000Y9409D02*
D03*
X259500Y82083D02*
D03*
X263154Y73425D02*
D03*
X259583Y73650D02*
D03*
X263189Y70064D02*
D03*
X263154Y66732D02*
D03*
Y56693D02*
D03*
Y53347D02*
D03*
Y63386D02*
D03*
Y60039D02*
D03*
X243500Y89000D02*
D03*
X202500Y76500D02*
D03*
X159586Y80086D02*
D03*
X239504Y60500D02*
D03*
X250004Y56496D02*
D03*
X229000Y56500D02*
D03*
X263154Y43307D02*
D03*
Y50000D02*
D03*
Y46654D02*
D03*
Y33268D02*
D03*
Y29921D02*
D03*
Y39961D02*
D03*
Y36614D02*
D03*
X265000Y18500D02*
D03*
X263154Y26575D02*
D03*
X256236Y26350D02*
D03*
X252890D02*
D03*
X250004Y50000D02*
D03*
X242800Y53200D02*
D03*
Y46800D02*
D03*
X250004Y43504D02*
D03*
X236300Y53200D02*
D03*
X229004Y50000D02*
D03*
X236300Y46800D02*
D03*
X229004Y43504D02*
D03*
X239504Y39500D02*
D03*
X207000Y22500D02*
D03*
X168500Y20000D02*
D03*
X161000Y13000D02*
D03*
X133000Y84000D02*
D03*
X97000Y81000D02*
D03*
X94000Y60500D02*
D03*
Y55500D02*
D03*
X79000Y59000D02*
D03*
X69500Y89500D02*
D03*
X47500Y85000D02*
D03*
Y68000D02*
D03*
X65000Y53500D02*
D03*
X60000Y29000D02*
D03*
X56500D02*
D03*
X53000D02*
D03*
X150000Y50500D02*
D03*
X88000Y73000D02*
D03*
X193000Y66500D02*
D03*
Y73500D02*
D03*
X167000Y80000D02*
D03*
X188000Y30500D02*
D03*
X197579Y29921D02*
D03*
X232811Y26350D02*
D03*
X226118D02*
D03*
X219500Y26500D02*
D03*
X246193Y67500D02*
D03*
X216079Y73650D02*
D03*
X216083Y32500D02*
D03*
X246197Y26350D02*
D03*
X249547Y32500D02*
D03*
X239504Y26350D02*
D03*
X242854Y32500D02*
D03*
X236161D02*
D03*
X229468D02*
D03*
X222776D02*
D03*
X222772Y73650D02*
D03*
X219421Y67500D02*
D03*
X229465Y73650D02*
D03*
X226114Y67500D02*
D03*
X236157Y73650D02*
D03*
X232807Y67500D02*
D03*
X239500D02*
D03*
X242850Y73650D02*
D03*
X249500Y73500D02*
D03*
D72*
X89874Y88000D02*
X108000D01*
X83800Y81926D02*
X89874Y88000D01*
X83800Y52200D02*
Y81926D01*
X79600Y48000D02*
X83800Y52200D01*
X254541Y90541D02*
Y94541D01*
X255000Y95000D01*
X253100Y89100D02*
X254541Y90541D01*
X253100Y88100D02*
Y89100D01*
X247600Y82600D02*
X253100Y88100D01*
X196160Y82600D02*
X247600D01*
X189760Y76200D02*
X196160Y82600D01*
X181500Y76200D02*
X189760D01*
X108000Y88000D02*
X123000Y73000D01*
X178300D02*
X181500Y76200D01*
X143500Y73000D02*
X178300D01*
X123000D02*
X143500D01*
Y50000D02*
Y73000D01*
X78000Y48000D02*
X79600D01*
D73*
X137500Y41500D02*
Y50000D01*
X123000Y27000D02*
X137500Y41500D01*
X96500Y27000D02*
X123000D01*
X61626Y15257D02*
X84756D01*
X96500Y27000D01*
M02*
