G04*
G04 #@! TF.GenerationSoftware,Altium Limited,Altium Designer,25.8.1 (18)*
G04*
G04 Layer_Color=8388736*
%FSLAX25Y25*%
%MOIN*%
G70*
G04*
G04 #@! TF.SameCoordinates,45636B8A-3915-4F7A-89EB-9D21C2A6E2F9*
G04*
G04*
G04 #@! TF.FilePolarity,Negative*
G04*
G01*
G75*
%ADD16R,0.00955X0.03306*%
G04:AMPARAMS|DCode=17|XSize=33.06mil|YSize=9.55mil|CornerRadius=4.77mil|HoleSize=0mil|Usage=FLASHONLY|Rotation=270.000|XOffset=0mil|YOffset=0mil|HoleType=Round|Shape=RoundedRectangle|*
%AMROUNDEDRECTD17*
21,1,0.03306,0.00000,0,0,270.0*
21,1,0.02351,0.00955,0,0,270.0*
1,1,0.00955,0.00000,-0.01176*
1,1,0.00955,0.00000,0.01176*
1,1,0.00955,0.00000,0.01176*
1,1,0.00955,0.00000,-0.01176*
%
%ADD17ROUNDEDRECTD17*%
G04:AMPARAMS|DCode=18|XSize=9.55mil|YSize=33.06mil|CornerRadius=4.77mil|HoleSize=0mil|Usage=FLASHONLY|Rotation=270.000|XOffset=0mil|YOffset=0mil|HoleType=Round|Shape=RoundedRectangle|*
%AMROUNDEDRECTD18*
21,1,0.00955,0.02351,0,0,270.0*
21,1,0.00000,0.03306,0,0,270.0*
1,1,0.00955,-0.01176,0.00000*
1,1,0.00955,-0.01176,0.00000*
1,1,0.00955,0.01176,0.00000*
1,1,0.00955,0.01176,0.00000*
%
%ADD18ROUNDEDRECTD18*%
%ADD20R,0.06102X0.05118*%
G04:AMPARAMS|DCode=27|XSize=53.43mil|YSize=22.53mil|CornerRadius=11.26mil|HoleSize=0mil|Usage=FLASHONLY|Rotation=0.000|XOffset=0mil|YOffset=0mil|HoleType=Round|Shape=RoundedRectangle|*
%AMROUNDEDRECTD27*
21,1,0.05343,0.00000,0,0,0.0*
21,1,0.03091,0.02253,0,0,0.0*
1,1,0.02253,0.01545,0.00000*
1,1,0.02253,-0.01545,0.00000*
1,1,0.02253,-0.01545,0.00000*
1,1,0.02253,0.01545,0.00000*
%
%ADD27ROUNDEDRECTD27*%
%ADD28R,0.05343X0.02253*%
%ADD30R,0.04528X0.02362*%
%ADD31R,0.04528X0.01181*%
%ADD37R,0.08071X0.08071*%
%ADD38R,0.02762X0.02526*%
G04:AMPARAMS|DCode=39|XSize=39.43mil|YSize=72.9mil|CornerRadius=3.95mil|HoleSize=0mil|Usage=FLASHONLY|Rotation=90.000|XOffset=0mil|YOffset=0mil|HoleType=Round|Shape=RoundedRectangle|*
%AMROUNDEDRECTD39*
21,1,0.03943,0.06500,0,0,90.0*
21,1,0.03154,0.07290,0,0,90.0*
1,1,0.00790,0.03250,0.01577*
1,1,0.00790,0.03250,-0.01577*
1,1,0.00790,-0.03250,-0.01577*
1,1,0.00790,-0.03250,0.01577*
%
%ADD39ROUNDEDRECTD39*%
G04:AMPARAMS|DCode=40|XSize=129.98mil|YSize=72.9mil|CornerRadius=4.07mil|HoleSize=0mil|Usage=FLASHONLY|Rotation=90.000|XOffset=0mil|YOffset=0mil|HoleType=Round|Shape=RoundedRectangle|*
%AMROUNDEDRECTD40*
21,1,0.12998,0.06476,0,0,90.0*
21,1,0.12185,0.07290,0,0,90.0*
1,1,0.00813,0.03238,0.06093*
1,1,0.00813,0.03238,-0.06093*
1,1,0.00813,-0.03238,-0.06093*
1,1,0.00813,-0.03238,0.06093*
%
%ADD40ROUNDEDRECTD40*%
%ADD41R,0.02762X0.01778*%
%ADD42R,0.02526X0.02762*%
%ADD43R,0.01778X0.02762*%
G04:AMPARAMS|DCode=44|XSize=27.62mil|YSize=30.38mil|CornerRadius=4.95mil|HoleSize=0mil|Usage=FLASHONLY|Rotation=180.000|XOffset=0mil|YOffset=0mil|HoleType=Round|Shape=RoundedRectangle|*
%AMROUNDEDRECTD44*
21,1,0.02762,0.02047,0,0,180.0*
21,1,0.01772,0.03038,0,0,180.0*
1,1,0.00991,-0.00886,0.01024*
1,1,0.00991,0.00886,0.01024*
1,1,0.00991,0.00886,-0.01024*
1,1,0.00991,-0.00886,-0.01024*
%
%ADD44ROUNDEDRECTD44*%
G04:AMPARAMS|DCode=45|XSize=27.62mil|YSize=30.38mil|CornerRadius=4.95mil|HoleSize=0mil|Usage=FLASHONLY|Rotation=90.000|XOffset=0mil|YOffset=0mil|HoleType=Round|Shape=RoundedRectangle|*
%AMROUNDEDRECTD45*
21,1,0.02762,0.02047,0,0,90.0*
21,1,0.01772,0.03038,0,0,90.0*
1,1,0.00991,0.01024,0.00886*
1,1,0.00991,0.01024,-0.00886*
1,1,0.00991,-0.01024,-0.00886*
1,1,0.00991,-0.01024,0.00886*
%
%ADD45ROUNDEDRECTD45*%
%ADD46R,0.03156X0.02762*%
%ADD47R,0.01975X0.03550*%
%ADD48R,0.03550X0.01975*%
%ADD49R,0.03550X0.03550*%
%ADD50R,0.05124X0.05124*%
%ADD51R,0.04400X0.04400*%
%ADD52C,0.04400*%
G04:AMPARAMS|DCode=53|XSize=39.37mil|YSize=86.61mil|CornerRadius=19.68mil|HoleSize=0mil|Usage=FLASHONLY|Rotation=270.000|XOffset=0mil|YOffset=0mil|HoleType=Round|Shape=RoundedRectangle|*
%AMROUNDEDRECTD53*
21,1,0.03937,0.04724,0,0,270.0*
21,1,0.00000,0.08661,0,0,270.0*
1,1,0.03937,-0.02362,0.00000*
1,1,0.03937,-0.02362,0.00000*
1,1,0.03937,0.02362,0.00000*
1,1,0.03937,0.02362,0.00000*
%
%ADD53ROUNDEDRECTD53*%
G04:AMPARAMS|DCode=54|XSize=39.37mil|YSize=70.87mil|CornerRadius=19.68mil|HoleSize=0mil|Usage=FLASHONLY|Rotation=270.000|XOffset=0mil|YOffset=0mil|HoleType=Round|Shape=RoundedRectangle|*
%AMROUNDEDRECTD54*
21,1,0.03937,0.03150,0,0,270.0*
21,1,0.00000,0.07087,0,0,270.0*
1,1,0.03937,-0.01575,0.00000*
1,1,0.03937,-0.01575,0.00000*
1,1,0.03937,0.01575,0.00000*
1,1,0.03937,0.01575,0.00000*
%
%ADD54ROUNDEDRECTD54*%
%ADD55R,0.04400X0.04400*%
%ADD56C,0.06800*%
%ADD57R,0.06800X0.06800*%
G36*
X243244Y53740D02*
Y59252D01*
X246197D01*
X248756Y56693D01*
Y53740D01*
X243244D01*
D02*
G37*
D16*
X74937Y84541D02*
D03*
D17*
X72969D02*
D03*
X69032D02*
D03*
X67063D02*
D03*
X69032Y69459D02*
D03*
X72969D02*
D03*
X74937D02*
D03*
X67063D02*
D03*
X71000D02*
D03*
Y84541D02*
D03*
D18*
X63459Y80937D02*
D03*
Y78969D02*
D03*
Y73063D02*
D03*
X78541D02*
D03*
Y75032D02*
D03*
Y77000D02*
D03*
Y78969D02*
D03*
Y80937D02*
D03*
X63459Y77000D02*
D03*
Y75032D02*
D03*
D20*
X124350Y66142D02*
D03*
X155650D02*
D03*
Y83858D02*
D03*
X124350D02*
D03*
Y16142D02*
D03*
X155650D02*
D03*
Y33858D02*
D03*
X124350D02*
D03*
D27*
X115742Y67000D02*
D03*
X108258Y63260D02*
D03*
X114985Y81260D02*
D03*
X107500Y77520D02*
D03*
D28*
X108258Y70740D02*
D03*
X107500Y85000D02*
D03*
D30*
X23764Y87441D02*
D03*
Y68543D02*
D03*
Y65394D02*
D03*
Y90591D02*
D03*
X24764Y34606D02*
D03*
Y9409D02*
D03*
Y31457D02*
D03*
Y12559D02*
D03*
D31*
X23764Y71102D02*
D03*
Y73071D02*
D03*
Y82913D02*
D03*
Y84882D02*
D03*
Y78976D02*
D03*
Y75039D02*
D03*
Y80945D02*
D03*
Y77008D02*
D03*
X24764Y15118D02*
D03*
Y26929D02*
D03*
Y24961D02*
D03*
Y21024D02*
D03*
Y22992D02*
D03*
Y19055D02*
D03*
Y17087D02*
D03*
Y28898D02*
D03*
D37*
X71000Y77000D02*
D03*
D38*
X179000Y81701D02*
D03*
Y78299D02*
D03*
X41500Y23299D02*
D03*
Y26701D02*
D03*
X40000Y85000D02*
D03*
Y81598D02*
D03*
X101500Y62799D02*
D03*
Y66201D02*
D03*
X179000Y18299D02*
D03*
Y21701D02*
D03*
X165000Y27799D02*
D03*
Y31201D02*
D03*
X101000Y81799D02*
D03*
Y85201D02*
D03*
X41500Y12799D02*
D03*
Y16201D02*
D03*
Y70799D02*
D03*
Y74201D02*
D03*
X59500Y56799D02*
D03*
Y60201D02*
D03*
D39*
X65697Y38055D02*
D03*
Y19800D02*
D03*
Y29000D02*
D03*
D40*
X90303D02*
D03*
D41*
X33700Y15441D02*
D03*
Y18000D02*
D03*
X34000Y75000D02*
D03*
Y72441D02*
D03*
X33500Y24759D02*
D03*
Y22200D02*
D03*
Y81000D02*
D03*
Y83559D02*
D03*
D42*
X90701Y66000D02*
D03*
X87299D02*
D03*
Y61000D02*
D03*
X90701D02*
D03*
X198201Y83000D02*
D03*
X194799D02*
D03*
X195299Y44800D02*
D03*
X198701D02*
D03*
X52299Y78500D02*
D03*
X55701D02*
D03*
X195301Y44800D02*
D03*
X191899D02*
D03*
X195301Y52000D02*
D03*
X191899D02*
D03*
X87299Y56000D02*
D03*
X90701D02*
D03*
X52299Y73500D02*
D03*
X55701D02*
D03*
X211599Y15500D02*
D03*
X215001D02*
D03*
X72501Y50500D02*
D03*
X69099D02*
D03*
X195299Y52000D02*
D03*
X198701D02*
D03*
X198201Y78000D02*
D03*
X194799D02*
D03*
X89799Y86500D02*
D03*
X93201D02*
D03*
X202899Y15500D02*
D03*
X206301D02*
D03*
X72500Y50500D02*
D03*
X75902D02*
D03*
D43*
X32721Y37000D02*
D03*
X35280D02*
D03*
X34780Y63000D02*
D03*
X32221D02*
D03*
D44*
X72280Y61500D02*
D03*
X75721D02*
D03*
X45720Y37000D02*
D03*
X42279D02*
D03*
X72280Y56000D02*
D03*
X75721D02*
D03*
X55221Y68000D02*
D03*
X51780D02*
D03*
X41780Y63000D02*
D03*
X45221D02*
D03*
X54720Y85000D02*
D03*
X51279D02*
D03*
X90280Y81000D02*
D03*
X93721D02*
D03*
X252780Y85500D02*
D03*
X246721D02*
D03*
X262280D02*
D03*
X265500Y14200D02*
D03*
X265721Y85500D02*
D03*
X256221D02*
D03*
X243280D02*
D03*
X262059Y14200D02*
D03*
D45*
X58000Y38000D02*
D03*
Y34559D02*
D03*
X165000Y22220D02*
D03*
Y18779D02*
D03*
X52500Y20279D02*
D03*
Y23720D02*
D03*
X65000Y59941D02*
D03*
Y56500D02*
D03*
X58000Y20279D02*
D03*
Y23720D02*
D03*
X165000Y68721D02*
D03*
Y65280D02*
D03*
D46*
X173000Y21870D02*
D03*
Y18130D02*
D03*
Y81870D02*
D03*
Y78130D02*
D03*
D47*
X256236Y77559D02*
D03*
X252890D02*
D03*
X249543D02*
D03*
X246197D02*
D03*
X242850D02*
D03*
X239504D02*
D03*
X236157D02*
D03*
X232811D02*
D03*
X229465D02*
D03*
X226118D02*
D03*
X222772D02*
D03*
X219425D02*
D03*
X216079D02*
D03*
Y22441D02*
D03*
X219425D02*
D03*
X222772D02*
D03*
X226118D02*
D03*
X229465D02*
D03*
X232811D02*
D03*
X236157D02*
D03*
X239504D02*
D03*
X242850D02*
D03*
X246197D02*
D03*
X249543D02*
D03*
X259583D02*
D03*
X262929D02*
D03*
X252890D02*
D03*
X256236D02*
D03*
X259583Y77559D02*
D03*
X262929D02*
D03*
D48*
X211945Y73425D02*
D03*
Y70079D02*
D03*
Y66732D02*
D03*
Y63386D02*
D03*
Y60039D02*
D03*
Y56693D02*
D03*
Y53347D02*
D03*
Y50000D02*
D03*
Y46654D02*
D03*
Y43307D02*
D03*
Y39961D02*
D03*
Y36614D02*
D03*
Y33268D02*
D03*
Y29921D02*
D03*
Y26575D02*
D03*
X267063Y29921D02*
D03*
Y26575D02*
D03*
Y33268D02*
D03*
Y39961D02*
D03*
Y36614D02*
D03*
Y43307D02*
D03*
Y50000D02*
D03*
Y46654D02*
D03*
Y53347D02*
D03*
Y60039D02*
D03*
Y56693D02*
D03*
Y63386D02*
D03*
Y70079D02*
D03*
Y66732D02*
D03*
Y73425D02*
D03*
D49*
X211945Y22441D02*
D03*
X267063D02*
D03*
X211945Y77559D02*
D03*
X267063D02*
D03*
D50*
X233008Y43504D02*
D03*
X239504Y50000D02*
D03*
X233008D02*
D03*
X239504Y43504D02*
D03*
X246000D02*
D03*
Y50000D02*
D03*
X239504Y56496D02*
D03*
X233008D02*
D03*
D51*
X37500Y55000D02*
D03*
D52*
Y50000D02*
D03*
Y45000D02*
D03*
X143500Y50000D02*
D03*
D53*
X5752Y60984D02*
D03*
Y95000D02*
D03*
X6752Y5000D02*
D03*
Y39016D02*
D03*
D54*
X21500Y60984D02*
D03*
Y95000D02*
D03*
X22500Y5000D02*
D03*
Y39016D02*
D03*
D55*
X137500Y50000D02*
D03*
D56*
X55000Y95000D02*
D03*
X255000D02*
D03*
X65000D02*
D03*
X255000Y5000D02*
D03*
X45000Y95000D02*
D03*
X35000Y5000D02*
D03*
X45000D02*
D03*
X55000D02*
D03*
X65000D02*
D03*
X75000D02*
D03*
X85000D02*
D03*
X95000D02*
D03*
X105000D02*
D03*
X115000D02*
D03*
X125000D02*
D03*
X135000D02*
D03*
X145000D02*
D03*
X155000D02*
D03*
X165000D02*
D03*
X175000D02*
D03*
X185000D02*
D03*
X195000D02*
D03*
X205000D02*
D03*
X215000D02*
D03*
X225000D02*
D03*
X235000D02*
D03*
X245000D02*
D03*
Y95000D02*
D03*
X235000D02*
D03*
X225000D02*
D03*
X215000D02*
D03*
X205000D02*
D03*
X195000D02*
D03*
X185000D02*
D03*
X175000D02*
D03*
X165000D02*
D03*
X155000D02*
D03*
X145000D02*
D03*
X135000D02*
D03*
X125000D02*
D03*
X115000D02*
D03*
X105000D02*
D03*
X95000D02*
D03*
X85000D02*
D03*
X75000D02*
D03*
X35000D02*
D03*
D57*
X265000Y5000D02*
D03*
Y95000D02*
D03*
M02*
