M48
;Layer_Color=9474304
;FILE_FORMAT=2:5
INCH,LZ
;TYPE=PLATED
T01F00S00C0.01200
T03F00S00C0.02800
T04F00S00C0.04000
%
T01
X003Y0009409
X00375Y0016
X0045Y0015
X00466Y00193
X004697Y0022479
X0045Y0025
X0037Y0024
X0048Y0034
X0053Y0029
X00565
X006
X0061626Y0015257
X00565Y00151
X00521
X0074Y00225
X00777Y00253
X00814Y0025
X00833Y00223
X0078Y0048
X00785Y0054
X0079Y0059
X0072732Y0065268
X0073Y0075
X0069
Y0079
X0073
X0075Y0088
X00695Y00895
X0081566Y0085066
X0088Y0073
X0062Y0065
X0065Y00535
X0062Y005
X00475Y00585
Y0068
X0044881Y0070602
X00485Y00735
Y00785
X00441Y00814
X00475Y0085
X0036Y0086204
X00345Y0078683
X003Y0077683
X0037Y00728
X0031Y00585
X00275Y0062
X0029Y00385
X00325Y00415
X0029Y00905
X0096Y0088
X0097Y0081
X0094Y00605
Y00555
X00989Y00472
X0102943Y0047199
X0106943
X0110943
X0114943
X01145Y0040198
X01105
X01065
X01025
X0098557Y00405
Y00335
X01025
X01065
X01105
X01145
X0123Y00395
X01555Y00415
X015Y00505
Y00605
X0155909Y0058409
X01615Y0063
X017Y006
X0175Y00615
X0179Y00635
X01829Y00661
X0193Y00665
X0195Y00701
X0193Y00735
X02025Y00765
X0216079Y007365
X0222772
X0229465
X0236157
X024285
X02495Y00735
X0246193Y00675
X02395
X0232807
X0226114
X0219421
X0229Y00565
X0229004Y005
Y0043504
X02363Y00468
Y00532
X02428
Y00468
X0239504Y00395
X0236161Y00325
X0242854
X0249547
X0246197Y002635
X0239504
X0232811
X0226118
X02195Y00265
X0222776Y00325
X0229468
X0216083
X0207Y00225
X0197579Y0029921
X0196755Y0038255
X0188591Y0038728
X0188Y0046506
Y0051
X0183Y0052
Y00455
X0179Y0037
X0171Y00387
X01685Y002
X0161Y0013
X0188Y00305
X02021Y00448
X02065Y0045
X02062Y00523
X02023
X0166998Y0056498
X0167Y008
X0159586Y0080086
X01815Y00762
X0133Y0084
X02435Y0089
X02475
X0239504Y00605
X0250004Y0056496
Y005
Y0043504
X0263154Y0043307
Y0046654
Y005
Y0053347
Y0056693
Y0060039
Y0063386
Y0066732
X0263189Y0070064
X0263154Y0073425
X0259583Y007365
X02595Y0082083
X02531Y00891
X0263154Y0039961
Y0036614
Y0033268
Y0029921
Y0026575
X0256236Y002635
X025289
X0265Y00185
T03
X00375Y0045
Y005
Y0055
X01375Y005
X01435
T04
X0035Y0005
X0045
X0055
X0065
X0075
X0085
X0095
X0105
X0115
X0125
X0135
X0145
X0155
X0165
X0175
X0185
X0195
X0205
X0215
X0225
X0235
X0245
X0255
X0265
Y0095
X0255
X0245
X0235
X0225
X0215
X0205
X0195
X0185
X0175
X0165
X0155
X0145
X0135
X0125
X0115
X0105
X0095
X0085
X0075
X0065
X0055
X0045
X0035
M30
